<svg width="190" height="190" viewBox="0 0 190 190" fill="none" xmlns="http://www.w3.org/2000/svg">
<g clip-path="url(#clip0_204_449)">
<path d="M84.6489 167.257L88.7976 167.882L86.5669 182.667L82.4182 182.042L84.6489 167.257ZM77.2342 166.141L87.6501 167.709L87.0874 171.438L76.6716 169.87L77.2342 166.141Z" fill="#E3FF04"/>
<path d="M63.2787 160.589C64.3914 161.125 65.2432 161.79 65.8339 162.586C66.4047 163.389 66.7106 164.279 66.7515 165.256C66.7726 166.241 66.5182 167.282 65.9884 168.381C65.4393 169.52 64.7598 170.399 63.9501 171.016C63.1404 171.634 62.23 171.963 61.2189 172.005C60.2013 172.061 59.1227 171.814 57.9831 171.266C56.8703 170.731 56.0422 170.084 55.4986 169.328C54.9417 168.564 54.6534 167.741 54.6338 166.856C54.5944 165.979 54.7975 165.078 55.2433 164.153C55.379 163.872 55.5348 163.6 55.7107 163.338C55.8866 163.076 56.0299 162.864 56.1407 162.703L64.7479 166.843L63.7594 168.894L58.4302 166.33L58.6395 166.307C58.5098 166.542 58.4467 166.775 58.4501 167.008C58.4336 167.248 58.517 167.486 58.7002 167.723C58.8699 167.953 59.176 168.175 59.6184 168.387C60.2352 168.684 60.7191 168.777 61.0702 168.665C61.4149 168.567 61.7036 168.276 61.9361 167.794L62.6242 166.366C62.8632 165.871 63.0071 165.469 63.0559 165.163C63.0982 164.869 63.0146 164.614 62.8051 164.398C62.5956 164.182 62.2294 163.948 61.7066 163.696C61.2507 163.477 60.9131 163.372 60.6935 163.382C60.4676 163.406 60.2997 163.531 60.1898 163.759L60.1705 163.799L56.43 162L56.5463 161.759C56.8822 161.062 57.3872 160.545 58.0612 160.209C58.7219 159.866 59.5019 159.722 60.4012 159.775C61.2872 159.821 62.2463 160.093 63.2787 160.589Z" fill="#E3FF04"/>
<path d="M43.5387 146.763C44.6735 147.815 45.296 148.828 45.4062 149.803C45.5062 150.788 45.0855 151.788 44.1438 152.801L39.1928 158.132L36.6712 159.568L34.2326 157.307L40.6416 150.407C40.8745 150.156 40.9714 149.932 40.9324 149.733C40.8934 149.535 40.6993 149.274 40.3501 148.95L39.0081 147.706L41.3925 145.139C41.6403 145.288 41.9645 145.507 42.3651 145.797C42.7656 146.087 43.1569 146.409 43.5387 146.763ZM35.9554 150.993L42.3712 156.94L40.0323 159.458L33.6165 153.511L35.9554 150.993Z" fill="#E3FF04"/>
<path d="M23.9263 134.007L25.244 136.287L22.6251 138.802L19.4934 140.609L17.3159 136.841L20.4476 135.035L23.9263 134.007Z" fill="#E3FF04"/>
<path d="M23.6793 110.881C24.1002 112.723 24.0619 114.158 23.5645 115.187C23.0671 116.216 22.1801 116.876 20.9037 117.167L20.8384 117.182L19.9685 113.375L20.2514 113.31C20.4544 113.264 20.6057 113.191 20.7052 113.092C20.7902 112.997 20.8295 112.835 20.8234 112.608C20.8138 112.366 20.7577 112.02 20.655 111.57C20.5688 111.193 20.4914 110.921 20.4226 110.753C20.3538 110.586 20.2782 110.489 20.1957 110.462C20.0954 110.424 19.98 110.419 19.8495 110.449C19.6754 110.489 19.5654 110.575 19.5194 110.708C19.4588 110.844 19.4381 111.153 19.4571 111.637L19.5526 113.859C19.5765 114.632 19.5176 115.309 19.3758 115.89C19.234 116.472 18.9698 116.952 18.5831 117.33C18.1786 117.697 17.6137 117.963 16.8884 118.128C15.8585 118.363 14.9083 118.145 14.0376 117.474C13.1637 116.788 12.5378 115.618 12.1601 113.965C11.9413 113.008 11.8836 112.121 11.9869 111.304C12.0869 110.472 12.3628 109.776 12.8145 109.215C13.263 108.64 13.9006 108.258 14.7274 108.069L15.1408 107.975L16.0157 111.804L15.8199 111.849C15.5878 111.902 15.422 111.978 15.3225 112.077C15.2086 112.179 15.153 112.336 15.1559 112.549C15.1409 112.751 15.1732 113.026 15.2528 113.374C15.3654 113.867 15.4875 114.168 15.6188 114.275C15.7324 114.371 15.8689 114.401 16.0285 114.365C16.1735 114.332 16.2796 114.262 16.3468 114.155C16.4106 114.033 16.4374 113.783 16.427 113.404L16.3776 110.783C16.3595 109.902 16.4408 109.189 16.6215 108.645C16.7844 108.089 17.0603 107.659 17.4491 107.357C17.82 107.044 18.3101 106.818 18.9193 106.679C19.9782 106.437 20.9463 106.667 21.8235 107.367C22.6863 108.071 23.3049 109.242 23.6793 110.881Z" fill="#E3FF04"/>
<path d="M27.543 66.3386L26.0088 70.2435L12.0886 64.7859L13.6227 60.881L27.543 66.3386ZM18.815 57.9789L13.9188 70.4413L10.4075 69.0647L15.3038 56.6022L18.815 57.9789Z" fill="#E3FF04"/>
<path d="M41.4376 44.7655L38.9871 47.835L37.6257 46.7504L37.0254 46.3578L33.3425 43.4238C33.0632 43.2013 32.8108 43.1239 32.5855 43.1916C32.3577 43.2385 32.0536 43.5002 31.673 43.9769C31.2924 44.4536 31.0896 44.8151 31.0643 45.0613C31.0484 45.2959 31.1743 45.5198 31.4419 45.733L31.7212 45.9555L29.229 49.0773L29.0195 48.9105C28.2748 48.3172 27.7845 47.6317 27.5486 46.8542C27.3103 46.0557 27.3103 45.2092 27.5484 44.3147C27.7866 43.4202 28.263 42.5253 28.9777 41.63C29.7203 40.6999 30.4725 40.0437 31.2344 39.6616C32.0057 39.2679 32.7912 39.1423 33.5911 39.285C34.3886 39.4067 35.2121 39.806 36.0615 40.4827L41.4376 44.7655ZM36.767 50.9738C36.1544 51.7412 35.4356 52.2243 34.6106 52.423C33.774 52.6125 32.9485 52.3828 32.1339 51.7339C31.6685 51.3631 31.3459 50.9445 31.1662 50.478C30.9842 49.9906 30.9451 49.4554 31.0489 48.8723C31.1619 48.2776 31.4213 47.6188 31.8271 46.8958L33.761 43.4719L35.681 45.0014L34.2028 47.6757C34.0869 47.8686 34.0313 48.0336 34.0362 48.1706C34.0387 48.2867 34.1039 48.3958 34.2319 48.4978C34.3832 48.6183 34.5343 48.6436 34.6853 48.5736C34.8247 48.4945 35.015 48.3037 35.2564 48.0014C35.6184 47.548 35.8654 47.1551 35.9974 46.8228C36.1271 46.4696 36.1452 46.1607 36.0519 45.8961C35.9561 45.6106 35.7512 45.3427 35.437 45.0924L38.0581 46.781L37.7797 47.1298C37.8637 47.4061 37.9119 47.7392 37.9241 48.1294C37.9246 48.5102 37.8462 48.9423 37.6888 49.4256C37.5198 49.8997 37.2125 50.4157 36.767 50.9738Z" fill="#E3FF04"/>
<path d="M55.3516 33.5416L51.9025 35.8908L43.4738 23.541L46.923 21.1919L55.3516 33.5416Z" fill="#E3FF04"/>
<path d="M80.1064 23.1786L75.7344 24.5257L72.7317 21.4578L69.1915 22.5487L68.0854 18.9665L71.5403 17.9019L72.3502 13.5658L76.7221 12.2186L75.3316 18.5317L80.1064 23.1786ZM72.2794 25.5903L68.2913 26.8192L63.88 12.5329L67.8681 11.304L72.2794 25.5903Z" fill="#E3FF04"/>
<path d="M115.507 25.0661L111.498 23.8307L115.909 9.54432L119.919 10.7798L115.507 25.0661ZM122.673 27.2742L112.607 24.1724L113.72 20.5688L123.786 23.6706L122.673 27.2742Z" fill="#E3FF04"/>
<path d="M135.645 34.8388C134.625 34.1437 133.882 33.3586 133.416 32.4836C132.971 31.6046 132.802 30.679 132.907 29.7066C133.033 28.7304 133.44 27.7384 134.127 26.7308C134.84 25.6863 135.643 24.919 136.536 24.429C137.429 23.9391 138.378 23.7487 139.384 23.858C140.399 23.955 141.429 24.3594 142.474 25.0713C143.494 25.7664 144.217 26.5286 144.642 27.3578C145.079 28.1955 145.241 29.053 145.129 29.9304C145.037 30.8039 144.701 31.6646 144.123 32.5125C143.947 32.7705 143.752 33.016 143.539 33.2489C143.326 33.4819 143.153 33.6698 143.019 33.8128L135.125 28.4362L136.408 26.5561L141.296 29.8851L141.085 29.8767C141.249 29.6639 141.346 29.4422 141.377 29.2115C141.429 28.9769 141.382 28.729 141.237 28.4676C141.103 28.2147 140.833 27.95 140.428 27.6736C139.862 27.2884 139.397 27.1249 139.033 27.183C138.678 27.2289 138.349 27.473 138.047 27.9154L137.154 29.2241C136.844 29.6787 136.641 30.0541 136.547 30.3501C136.462 30.6338 136.507 30.8983 136.681 31.1434C136.856 31.3885 137.184 31.6744 137.663 32.001C138.081 32.2858 138.4 32.4396 138.618 32.4624C138.845 32.473 139.03 32.3738 139.172 32.1649L139.198 32.1281L142.628 34.4647L142.477 34.6859C142.041 35.3248 141.465 35.7603 140.748 35.9922C140.044 36.2325 139.251 36.2595 138.369 36.0731C137.5 35.8951 136.592 35.4837 135.645 34.8388Z" fill="#E3FF04"/>
<path d="M153.103 51.4506C152.138 50.2414 151.673 49.1468 151.709 48.1669C151.757 47.1776 152.322 46.2519 153.405 45.3898L159.095 40.8568L161.802 39.8127L163.877 42.4113L156.511 48.2793C156.243 48.4925 156.114 48.7001 156.123 48.9022C156.132 49.1043 156.285 49.3913 156.582 49.7634L157.724 51.1935L154.983 53.3766C154.76 53.1928 154.472 52.9276 154.12 52.581C153.767 52.2343 153.428 51.8576 153.103 51.4506ZM161.232 48.3986L155.774 41.5619L158.462 39.4205L163.92 46.2572L161.232 48.3986Z" fill="#E3FF04"/>
<path d="M170.592 66.9856L169.629 64.5347L172.594 62.4376L175.96 61.118L177.551 65.1683L174.185 66.4879L170.592 66.9856Z" fill="#E3FF04"/>
<path d="M167.386 89.8913C167.244 88.0072 167.496 86.5934 168.142 85.6499C168.787 84.7065 169.762 84.1859 171.068 84.0881L171.135 84.0831L171.427 87.9775L171.138 87.9992C170.93 88.0147 170.769 88.064 170.656 88.1471C170.558 88.2291 170.495 88.383 170.467 88.6088C170.44 88.8495 170.444 89.1998 170.479 89.6598C170.508 90.0455 170.544 90.3263 170.587 90.5021C170.63 90.6779 170.69 90.7853 170.768 90.8242C170.861 90.8769 170.975 90.8982 171.108 90.8882C171.286 90.8749 171.408 90.8061 171.473 90.6819C171.553 90.5565 171.62 90.2532 171.673 89.7717L171.91 87.5609C172.002 86.7932 172.161 86.1323 172.388 85.5782C172.615 85.0241 172.948 84.5889 173.387 84.2726C173.842 83.97 174.44 83.7909 175.182 83.7354C176.235 83.6566 177.142 84.0138 177.903 84.8073C178.665 85.6156 179.109 86.8653 179.236 88.5566C179.309 89.5358 179.234 90.4217 179.01 91.2142C178.787 92.0216 178.41 92.669 177.88 93.1562C177.351 93.6584 176.663 93.9411 175.818 94.0044L175.395 94.036L175.101 90.1194L175.301 90.1044C175.539 90.0866 175.714 90.0362 175.827 89.9531C175.955 89.8689 176.033 89.7213 176.062 89.5103C176.107 89.313 176.116 89.0363 176.09 88.6803C176.052 88.1758 175.976 87.8608 175.862 87.735C175.764 87.623 175.634 87.5731 175.47 87.5853C175.322 87.5964 175.207 87.6498 175.124 87.7455C175.043 87.856 174.979 88.0995 174.933 88.4759L174.591 91.0751C174.477 91.9489 174.291 92.6417 174.031 93.1535C173.787 93.679 173.45 94.0623 173.02 94.3033C172.607 94.558 172.088 94.7087 171.465 94.7554C170.382 94.8365 169.459 94.4655 168.696 93.6423C167.948 92.8181 167.511 91.5678 167.386 89.8913Z" fill="#E3FF04"/>
<path d="M156.916 133.36L159.015 129.727L171.967 137.197L169.868 140.83L156.916 133.36ZM164.301 142.926L171.001 131.333L174.268 133.217L167.568 144.81L164.301 142.926Z" fill="#E3FF04"/>
<path d="M139.958 152.621L142.839 149.951L144.024 151.227L144.559 151.704L147.763 155.154C148.006 155.416 148.244 155.53 148.477 155.497C148.709 155.484 149.049 155.271 149.497 154.856C149.944 154.442 150.198 154.114 150.26 153.875C150.311 153.645 150.22 153.405 149.987 153.154L149.744 152.893L152.673 150.177L152.856 150.373C153.504 151.071 153.886 151.822 154.004 152.626C154.12 153.451 153.994 154.288 153.625 155.137C153.257 155.986 152.652 156.8 151.812 157.579C150.939 158.388 150.097 158.924 149.287 159.189C148.466 159.463 147.67 159.47 146.901 159.21C146.13 158.971 145.375 158.453 144.636 157.657L139.958 152.621ZM145.502 147.178C146.222 146.511 147.005 146.14 147.851 146.067C148.706 146.004 149.488 146.354 150.197 147.117C150.602 147.553 150.858 148.015 150.967 148.503C151.074 149.012 151.033 149.548 150.843 150.109C150.643 150.68 150.288 151.293 149.779 151.947L147.357 155.044L145.686 153.246L147.546 150.822C147.69 150.648 147.769 150.493 147.785 150.357C147.8 150.242 147.751 150.124 147.64 150.005C147.508 149.863 147.363 149.815 147.203 149.862C147.053 149.92 146.837 150.08 146.553 150.343C146.127 150.737 145.825 151.089 145.645 151.398C145.464 151.728 145.4 152.03 145.453 152.306C145.505 152.603 145.667 152.898 145.941 153.192L143.601 151.132L143.928 150.828C143.886 150.543 143.888 150.206 143.934 149.819C143.99 149.442 144.132 149.026 144.36 148.572C144.598 148.128 144.979 147.664 145.502 147.178Z" fill="#E3FF04"/>
<path d="M124.526 161.647L128.287 159.838L134.78 173.307L131.019 175.116L124.526 161.647Z" fill="#E3FF04"/>
<path d="M98.5029 168.211L103.027 167.53L105.538 171.01L109.201 170.459L109.761 174.166L106.186 174.704L104.738 178.872L100.214 179.553L102.531 173.517L98.5029 168.211ZM106.602 166.991L110.728 166.37L112.959 181.154L108.832 181.776L106.602 166.991Z" fill="#E3FF04"/>
</g>
<defs>
<clipPath id="clip0_204_449">
<rect width="190" height="190" fill="white"/>
</clipPath>
</defs>
</svg>
