<svg width="190" height="190" viewBox="0 0 190 190" fill="none" xmlns="http://www.w3.org/2000/svg">
<g clip-path="url(#clip0_152_924)">
<path d="M93.4672 171H98.6911V174.28H93.5158C92.4143 174.28 91.5315 174.41 90.8673 174.669C90.2032 174.944 89.7173 175.43 89.4095 176.127C89.1017 176.84 88.9478 177.844 88.9478 179.14C88.9478 180.436 89.1017 181.432 89.4095 182.128C89.7173 182.841 90.2032 183.327 90.8673 183.586C91.5315 183.861 92.4143 183.999 93.5158 183.999H98.6911V187.279H93.4672C91.7178 187.279 90.2194 186.955 88.9721 186.307C87.7087 185.66 86.7368 184.728 86.0564 183.513C85.3761 182.298 85.0359 180.84 85.0359 179.14C85.0359 177.439 85.3761 175.981 86.0564 174.766C86.7368 173.551 87.7087 172.62 88.9721 171.972C90.2194 171.324 91.7178 171 93.4672 171ZM96.0427 171H99.6873V187.279H96.0427V171Z" fill="#D5F161" fill-opacity="0.29"/>
<path d="M70.3211 181.155L73.7711 182.079L73.1263 184.673L69.6293 183.736L70.3211 181.155ZM73.7723 167.993L77.2928 168.936L74.1296 180.741L70.6091 179.798L73.7723 167.993Z" fill="#D5F161" fill-opacity="0.29"/>
<path d="M58.9706 156.905C60.0648 157.537 60.9046 158.237 61.4898 159.005C62.0832 159.759 62.4051 160.562 62.4556 161.414C62.492 162.258 62.251 163.129 61.7327 164.027L58.5974 162.217C58.7999 161.866 58.9087 161.564 58.9239 161.311C58.9331 161.036 58.8037 160.774 58.5356 160.526C58.2756 160.264 57.851 159.962 57.2618 159.622C56.7007 159.298 56.2474 159.111 55.9021 159.062C55.5567 159.012 55.2499 159.106 54.9816 159.344C54.7074 159.56 54.4124 159.941 54.0965 160.488L50.0266 167.537L49.6583 167.689L48.3584 169.941L45.4335 168.252L50.864 158.846C51.52 157.71 52.262 156.895 53.09 156.4C53.9121 155.883 54.8171 155.676 55.8052 155.779C56.7792 155.874 57.8343 156.249 58.9706 156.905ZM57.3394 162.501C58.7983 163.343 59.6625 164.422 59.9319 165.737C60.1872 167.044 59.8897 168.434 59.0393 169.907C58.1889 171.38 57.1158 172.332 55.82 172.762C54.5241 173.192 53.1257 172.974 51.6247 172.107C50.8531 171.662 50.2718 171.13 49.8808 170.511C49.4676 169.899 49.2908 169.217 49.3504 168.465L48.8875 168.198L50.6716 165.497L51.0714 165.728C50.8123 166.177 50.6969 166.587 50.7254 166.959C50.7318 167.336 50.8738 167.69 51.1517 168.018C51.4154 168.339 51.7998 168.645 52.3049 168.937C52.9081 169.285 53.4266 169.472 53.8605 169.498C54.2862 169.538 54.6624 169.437 54.989 169.196C55.3155 168.954 55.6205 168.588 55.904 168.097C56.1146 167.732 56.2658 167.389 56.3576 167.068C56.4355 166.739 56.4428 166.435 56.3798 166.155C56.3027 165.867 56.1412 165.596 55.8952 165.342C55.6352 165.08 55.2877 164.823 54.8528 164.572C54.3478 164.281 53.8835 164.097 53.4599 164.02C53.0363 163.944 52.6634 163.991 52.3412 164.16C51.9968 164.335 51.6951 164.647 51.4359 165.096L50.9519 164.817L52.6649 161.85L53.2751 162.202C53.7485 161.933 54.3478 161.802 55.0731 161.809C55.7843 161.809 56.5398 162.039 57.3394 162.501Z" fill="#D5F161" fill-opacity="0.29"/>
<path d="M30.5507 157.273L33.0763 159.798L31.2208 161.723L28.6608 159.163L30.5507 157.273ZM40.1205 147.6L42.6977 150.177L34.0556 158.819L31.4785 156.242L40.1205 147.6Z" fill="#D5F161" fill-opacity="0.29"/>
<path d="M28.303 131.381C29.0968 132.756 29.4144 133.938 29.2561 134.927C29.0978 135.917 28.3943 136.772 27.1458 137.492L20.3492 141.417L17.1828 142.347L15.7493 139.864L24.9658 134.543C25.4287 134.275 25.6515 133.997 25.6342 133.708C25.6168 133.419 25.4137 132.937 25.025 132.264L24.2718 130.959L26.902 129.441C27.1039 129.661 27.3353 129.948 27.596 130.303C27.8487 130.643 28.0844 131.003 28.303 131.381ZM19.0954 133.948L23.6147 141.776L21.0054 143.282L16.4861 135.454L19.0954 133.948Z" fill="#D5F161" fill-opacity="0.29"/>
<path d="M20.0151 108.793L20.8892 112.055L18.8239 112.608L18.1621 112.861L13.5855 114.087C12.8971 114.272 12.4994 114.571 12.3924 114.986C12.2854 115.4 12.3263 115.959 12.5149 116.663C12.7036 117.367 12.9572 117.844 13.2757 118.094C13.5943 118.345 14.0508 118.39 14.6454 118.231L14.9036 118.161L15.8029 121.518L15.5447 121.587C14.6059 121.838 13.7237 121.831 12.898 121.566C12.0681 121.286 11.3565 120.789 10.7629 120.076C10.1496 119.351 9.69406 118.434 9.3964 117.323C9.08616 116.165 9.02963 115.14 9.22681 114.249C9.40416 113.346 9.81594 112.599 10.4622 112.006C11.1042 111.398 11.9572 110.952 13.0211 110.667L20.0151 108.793ZM22.237 116.146C22.5179 117.194 22.4809 118.152 22.1262 119.018C21.7672 119.869 21.0557 120.437 19.9918 120.722C19.3816 120.886 18.8119 120.887 18.2827 120.727C17.7493 120.552 17.2684 120.228 16.84 119.756C16.3918 119.272 15.9961 118.64 15.6529 117.86L13.8747 113.758L16.1512 113.148L17.683 116.612C17.842 116.955 18.0071 117.196 18.1784 117.334C18.3497 117.473 18.5605 117.509 18.8109 117.441C19.1238 117.358 19.3093 117.174 19.3674 116.89C19.4255 116.606 19.3854 116.206 19.247 115.69C19.117 115.204 18.9386 114.758 18.7117 114.349C18.4649 113.929 18.1474 113.62 17.759 113.422C17.3549 113.228 16.8478 113.213 16.2376 113.377L19.2241 112.224L19.331 112.623C19.6671 112.751 20.0242 112.957 20.4023 113.242C20.7762 113.511 21.1261 113.878 21.4523 114.344C21.7784 114.81 22.0399 115.411 22.237 116.146Z" fill="#D5F161" fill-opacity="0.29"/>
<path d="M19 93.4321V97.0525H2.72066L2.72066 93.4321H19Z" fill="#D5F161" fill-opacity="0.29"/>
<path d="M26.8225 61.0863L25.0001 64.2426L10.9018 56.1029L13.4652 51.663L21.4728 53.0036L25.7482 53.9569L25.8696 53.7465L22.8943 50.5417L17.6687 44.3824L20.2321 39.9425L34.3304 48.0821L32.5081 51.2385L25.8377 47.3873L23.2204 45.6518L23.0868 45.8833L25.3695 48.2954L29.8029 53.6887L27.5918 57.5184L20.7044 56.3756L17.4619 55.6258L17.3404 55.8363L20.1521 57.2351L26.8225 61.0863Z" fill="#D5F161" fill-opacity="0.29"/>
<path d="M45.5636 36.9567L43.1755 39.3448L41.6636 37.8329L41.1138 37.3862L37.7635 34.0359C37.2595 33.5319 36.8014 33.3372 36.389 33.4518C35.9767 33.5663 35.5128 33.8813 34.9974 34.3967C34.4819 34.9122 34.1956 35.3703 34.1383 35.7712C34.081 36.1721 34.27 36.5902 34.7053 37.0254L34.8943 37.2144L32.4374 39.6713L32.2484 39.4823C31.5612 38.795 31.1259 38.0276 30.9427 37.18C30.7708 36.321 30.8453 35.4562 31.166 34.5857C31.4867 33.6923 32.0537 32.839 32.8669 32.0258C33.7145 31.1782 34.5736 30.6169 35.4441 30.342C36.3146 30.0442 37.1679 30.027 38.004 30.2905C38.8516 30.5425 39.6648 31.0579 40.4437 31.8368L45.5636 36.9567ZM40.3063 42.5577C39.5389 43.3251 38.6913 43.7718 37.7635 43.8978C36.8472 44.0123 35.9996 43.6802 35.2207 42.9013C34.774 42.4546 34.4877 41.9621 34.3617 41.4237C34.2471 40.8739 34.2872 40.2955 34.4819 39.6885C34.6766 39.0585 35.026 38.3999 35.53 37.7126L38.193 34.1218L39.8596 35.7884L37.626 38.8466C37.4084 39.1558 37.2824 39.4193 37.2481 39.6369C37.2137 39.8545 37.2882 40.055 37.4714 40.2382C37.7005 40.4673 37.9525 40.536 38.2274 40.4444C38.5023 40.3528 38.8287 40.118 39.2067 39.74C39.5618 39.3849 39.8596 39.0069 40.1001 38.6061C40.3406 38.1823 40.4494 37.7527 40.4265 37.3175C40.3922 36.8708 40.1516 36.4241 39.7049 35.9774L42.1962 37.9875L41.9041 38.2796C41.9614 38.6347 41.9614 39.047 41.9041 39.5166C41.8583 39.9748 41.7151 40.4616 41.4746 40.977C41.234 41.4925 40.8446 42.0193 40.3063 42.5577Z" fill="#D5F161" fill-opacity="0.29"/>
<path d="M56.0365 29.7386L52.9012 31.5488L46.7904 20.9645L49.7153 19.2758L51.4526 22.2849L51.7237 22.2686L56.0365 29.7386ZM52.2097 23.1103L51.6205 23.4505L50.3206 21.1989L50.8256 20.9074C50.7844 20.2204 50.8969 19.5569 51.1633 18.9168C51.4356 18.2545 51.9435 17.7088 52.687 17.2795C53.4305 16.8503 54.1169 16.6785 54.7461 16.7641C55.3813 16.8275 55.9631 17.0902 56.4916 17.5519C57.012 17.9997 57.4787 18.5812 57.8917 19.2967L58.4506 20.2646L55.3153 22.0748L54.9873 21.5066C54.6552 20.9315 54.3302 20.5954 54.0123 20.4984C53.6944 20.4013 53.283 20.4986 52.778 20.7902C52.301 21.0655 52.0041 21.3773 51.8871 21.7254C51.7701 22.0735 51.8776 22.5351 52.2097 23.1103Z" fill="#D5F161" fill-opacity="0.29"/>
<path d="M82.3489 19.7092L78.3121 20.7908L74.5797 17.1876L70.848 18.1875L70.0053 15.0426L73.6666 14.0616L75.1724 8.97931L79.2092 7.89766L76.8694 14.5617L82.3489 19.7092ZM73.9233 21.9668L70.4263 22.9038L66.2129 7.17917L69.7099 6.24216L73.9233 21.9668Z" fill="#D5F161" fill-opacity="0.29"/>
<path d="M94.7992 19.243C93.4061 19.243 92.2561 18.9838 91.349 18.4655C90.4419 17.9471 89.7696 17.2182 89.3323 16.2787C88.8949 15.323 88.6762 14.2053 88.6762 12.9256C88.6762 11.6136 88.9192 10.4797 89.4052 9.52397C89.9073 8.56826 90.62 7.83124 91.5433 7.31289C92.4666 6.79455 93.56 6.53537 94.8235 6.53537C96.0546 6.53537 97.0994 6.76215 97.9579 7.2157C98.8326 7.66926 99.4967 8.30099 99.9503 9.11091C100.42 9.90463 100.655 10.836 100.655 11.9051C100.655 12.2453 100.631 12.5774 100.582 12.9013C100.55 13.2253 100.517 13.4926 100.485 13.7031L90.2799 13.7031V11.4921L97.3747 11.4921L97.1318 11.6864C97.1966 11.2167 97.1399 10.8279 96.9617 10.5202C96.7997 10.1962 96.5243 9.95322 96.1356 9.79124C95.763 9.61306 95.2852 9.52397 94.702 9.52397C93.6977 9.52397 93.0093 9.75074 92.6367 10.2043C92.2642 10.6579 92.0779 11.3058 92.0779 12.1481V13.2172C92.0779 13.8975 92.1508 14.4483 92.2966 14.8694C92.4585 15.2906 92.742 15.5983 93.147 15.7927C93.5519 15.9871 94.1189 16.0843 94.8478 16.0843C95.5767 16.0843 96.1032 16.0033 96.4271 15.8413C96.7673 15.6631 96.9374 15.3878 96.9374 15.0152V14.8694H100.533V15.1124C100.533 15.9871 100.299 16.7322 99.8288 17.3478C99.359 17.9633 98.6949 18.4331 97.8364 18.757C96.9779 19.081 95.9655 19.243 94.7992 19.243Z" fill="#D5F161" fill-opacity="0.29"/>
<path d="M116.435 22.1133C114.902 21.7024 113.842 21.0913 113.254 20.2798C112.667 19.4684 112.559 18.3664 112.932 16.9738L114.964 9.39316L116.545 6.49641L119.314 7.23847L116.56 17.5182C116.421 18.0345 116.461 18.3888 116.678 18.581C116.894 18.7733 117.378 18.97 118.129 19.1713L119.584 19.5612L118.798 22.4949C118.5 22.482 118.133 22.4424 117.698 22.3762C117.279 22.3141 116.858 22.2265 116.435 22.1133ZM121.131 13.7876L112.401 11.4483L113.18 8.53802L121.911 10.8774L121.131 13.7876Z" fill="#D5F161" fill-opacity="0.29"/>
<path d="M141.136 18.1684L138.043 16.3825L139.337 14.0436L142.473 15.8537L141.136 18.1684ZM134.396 29.9885L131.24 28.1662L137.35 17.5819L140.507 19.4042L134.396 29.9885Z" fill="#D5F161" fill-opacity="0.29"/>
<path d="M153.228 45.7486L150.651 43.1715L155.616 38.2062C156.212 37.6106 156.509 37.0722 156.509 36.5912C156.521 36.0987 156.2 35.526 155.547 34.8731C155.135 34.4607 154.745 34.1744 154.379 34.014C154.024 33.8651 153.657 33.8537 153.279 33.9797C152.913 34.0942 152.512 34.3691 152.077 34.8044L151.716 34.4436L153.743 32.0039L154.241 32.5021C154.734 32.3303 155.232 32.2444 155.736 32.2444C156.252 32.2558 156.767 32.3818 157.283 32.6224C157.809 32.8515 158.325 33.218 158.829 33.722C159.585 34.4779 160.049 35.2396 160.22 36.007C160.392 36.7744 160.329 37.5247 160.031 38.2577C159.757 38.9908 159.316 39.6608 158.709 40.2679L153.228 45.7486ZM147.18 39.7009L144.62 37.141L153.262 28.499L155.65 30.8871L153.211 33.3268L153.297 33.5845L147.18 39.7009Z" fill="#D5F161" fill-opacity="0.29"/>
<path d="M157.156 59.4032C156.524 58.309 156.147 57.283 156.024 56.3251C155.888 55.3754 156.01 54.5189 156.393 53.7558C156.783 53.0066 157.427 52.3729 158.325 51.8545L160.135 54.9898C159.785 55.1923 159.539 55.3993 159.4 55.6109C159.254 55.8446 159.235 56.136 159.343 56.4851C159.437 56.8424 159.654 57.3156 159.995 57.9047C160.318 58.4659 160.618 58.8543 160.892 59.0701C161.166 59.2859 161.479 59.3578 161.83 59.2859C162.175 59.2362 162.622 59.0533 163.169 58.7375L170.218 54.6676L170.613 54.7201L172.864 53.4202L174.553 56.3451L165.147 61.7756C164.011 62.4316 162.961 62.7668 161.996 62.7811C161.026 62.8176 160.139 62.5443 159.334 61.9612C158.538 61.3921 157.812 60.5395 157.156 59.4032ZM161.367 55.3731C160.524 53.9142 160.315 52.5479 160.74 51.2742C161.172 50.0145 162.125 48.9594 163.598 48.109C165.071 47.2586 166.476 46.9711 167.813 47.2464C169.15 47.5217 170.252 48.4099 171.119 49.9109C171.564 50.6825 171.802 51.4339 171.831 52.1651C171.883 52.9022 171.695 53.5811 171.268 54.2019L171.535 54.6648L168.639 56.1122L168.408 55.7124C168.857 55.4533 169.162 55.1556 169.323 54.8193C169.507 54.489 169.56 54.112 169.484 53.6884C169.416 53.2789 169.236 52.8216 168.945 52.3165C168.596 51.7133 168.241 51.292 167.878 51.0525C167.529 50.8049 167.153 50.7041 166.75 50.7501C166.346 50.7961 165.899 50.9609 165.408 51.2443C165.043 51.4549 164.741 51.6763 164.501 51.9084C164.269 52.1545 164.11 52.4144 164.025 52.6881C163.948 52.9757 163.952 53.2911 164.038 53.6343C164.132 53.9915 164.305 54.3876 164.556 54.8224C164.847 55.3275 165.157 55.7189 165.486 55.9967C165.815 56.2745 166.161 56.4206 166.525 56.4351C166.911 56.4555 167.328 56.3361 167.777 56.0769L168.056 56.5609L165.089 58.2738L164.737 57.6636C164.193 57.66 163.608 57.4738 162.984 57.1048C162.367 56.75 161.828 56.1727 161.367 55.3731Z" fill="#D5F161" fill-opacity="0.29"/>
<path d="M171 90.0436V86.2531L187.279 92.2546V97.5515L171 103.553V99.5925L180.403 96.1665L184.072 94.976V94.733L180.403 93.4938L171 90.0436ZM174.62 100.37V89.5819H177.876V100.37H174.62Z" fill="#D5F161" fill-opacity="0.29"/>
<path d="M164.121 113.78C164.448 112.56 164.907 111.567 165.497 110.803C166.072 110.035 166.764 109.516 167.575 109.247C168.38 108.993 169.284 109.001 170.285 109.269L169.348 112.766C168.957 112.661 168.637 112.634 168.389 112.685C168.121 112.747 167.901 112.94 167.731 113.263C167.545 113.582 167.364 114.07 167.188 114.727C167.02 115.353 166.957 115.839 166.998 116.186C167.039 116.532 167.21 116.804 167.509 117.002C167.788 117.211 168.233 117.397 168.843 117.561L176.706 119.668L176.948 119.984L179.459 120.657L178.585 123.919L168.094 121.108C166.827 120.768 165.847 120.263 165.155 119.591C164.443 118.931 164.009 118.11 163.853 117.129C163.692 116.164 163.781 115.047 164.121 113.78ZM169.948 113.908C170.384 112.28 171.202 111.166 172.403 110.566C173.599 109.981 175.019 109.908 176.662 110.349C178.305 110.789 179.502 111.579 180.253 112.719C181.004 113.86 181.155 115.267 180.706 116.941C180.476 117.802 180.112 118.501 179.616 119.039C179.131 119.596 178.518 119.944 177.777 120.08L177.639 120.597L174.568 119.573L174.687 119.127C175.188 119.261 175.614 119.266 175.966 119.142C176.329 119.038 176.634 118.81 176.879 118.456C177.121 118.119 177.317 117.668 177.468 117.105C177.648 116.432 177.695 115.883 177.607 115.457C177.536 115.035 177.341 114.698 177.023 114.445C176.705 114.192 176.273 113.992 175.725 113.846C175.318 113.737 174.948 113.679 174.614 113.674C174.276 113.684 173.98 113.755 173.726 113.889C173.468 114.037 173.248 114.264 173.066 114.567C172.88 114.886 172.722 115.288 172.592 115.773C172.441 116.336 172.384 116.833 172.42 117.261C172.456 117.69 172.597 118.038 172.844 118.306C173.103 118.593 173.482 118.804 173.983 118.938L173.838 119.478L170.529 118.591L170.712 117.911C170.329 117.523 170.048 116.978 169.867 116.275C169.682 115.589 169.709 114.799 169.948 113.908Z" fill="#D5F161" fill-opacity="0.29"/>
<path d="M160.709 132.704C161.405 131.498 162.205 130.632 163.107 130.105C164.01 129.579 164.977 129.361 166.009 129.452C167.056 129.551 168.133 129.921 169.241 130.56C170.377 131.216 171.238 131.994 171.823 132.893C172.399 133.805 172.681 134.791 172.668 135.85C172.656 136.909 172.333 137.985 171.702 139.079C171.086 140.145 170.367 140.937 169.545 141.454C168.715 141.984 167.836 142.244 166.908 142.231C165.986 142.241 165.061 141.979 164.136 141.445C163.841 141.274 163.566 141.087 163.309 140.883C163.045 140.693 162.83 140.532 162.664 140.398L167.766 131.56L169.681 132.666L166.133 138.81L166.087 138.503C166.461 138.794 166.826 138.939 167.182 138.939C167.543 138.96 167.891 138.843 168.226 138.588C168.567 138.354 168.883 137.985 169.174 137.48C169.676 136.61 169.824 135.9 169.618 135.351C169.411 134.802 168.943 134.316 168.214 133.895L167.288 133.361C166.699 133.02 166.185 132.808 165.748 132.724C165.302 132.654 164.894 132.745 164.523 132.999C164.152 133.252 163.784 133.695 163.42 134.326C163.055 134.957 162.862 135.453 162.841 135.815C162.825 136.199 162.978 136.484 163.301 136.67L163.427 136.743L161.629 139.857L161.419 139.736C160.661 139.298 160.133 138.722 159.835 138.008C159.537 137.293 159.462 136.483 159.611 135.578C159.76 134.672 160.126 133.714 160.709 132.704Z" fill="#D5F161" fill-opacity="0.29"/>
<path d="M144.252 153.229L146.829 150.651L151.794 155.617C152.39 156.212 152.928 156.51 153.409 156.51C153.902 156.522 154.474 156.201 155.127 155.548C155.54 155.136 155.826 154.746 155.986 154.38C156.135 154.025 156.147 153.658 156.021 153.28C155.906 152.914 155.631 152.513 155.196 152.077L155.557 151.717L157.996 153.744L157.498 154.242C157.67 154.735 157.756 155.233 157.756 155.737C157.744 156.252 157.618 156.768 157.378 157.283C157.149 157.81 156.782 158.326 156.278 158.83C155.522 159.585 154.761 160.049 153.993 160.221C153.226 160.393 152.476 160.33 151.743 160.032C151.009 159.757 150.339 159.316 149.732 158.709L144.252 153.229ZM150.299 147.181L152.859 144.621L161.501 153.263L159.113 155.651L156.673 153.211L156.416 153.297L150.299 147.181Z" fill="#D5F161" fill-opacity="0.29"/>
<path d="M132.268 160.96C133.432 160.288 134.543 159.946 135.602 159.933C136.661 159.92 137.629 160.203 138.505 160.782C139.39 161.375 140.152 162.225 140.792 163.333C141.448 164.47 141.805 165.573 141.862 166.644C141.905 167.722 141.642 168.725 141.073 169.652C140.505 170.579 139.631 171.382 138.453 172.063C137.513 172.605 136.573 172.905 135.633 172.961C134.687 173.04 133.817 172.878 133.024 172.476C132.231 172.073 131.579 171.43 131.069 170.546L130.923 170.294L134.079 168.472L134.176 168.64C134.525 169.243 134.932 169.56 135.398 169.59C135.858 169.642 136.418 169.478 137.078 169.097C137.835 168.66 138.272 168.136 138.388 167.527C138.489 166.926 138.257 166.134 137.69 165.152C137.123 164.17 136.554 163.573 135.982 163.361C135.405 163.17 134.737 163.294 133.98 163.731C133.32 164.112 132.894 164.508 132.701 164.918C132.502 165.351 132.577 165.869 132.925 166.473L133.022 166.641L129.866 168.463L129.72 168.211C129.218 167.341 128.994 166.451 129.048 165.54C129.11 164.644 129.415 163.795 129.962 162.993C130.517 162.205 131.286 161.527 132.268 160.96Z" fill="#D5F161" fill-opacity="0.29"/>
<path d="M115.867 163.813C116.258 163.708 116.665 163.633 117.089 163.586C117.508 163.524 117.844 163.493 118.095 163.493L118.875 166.403L116.903 166.931C116.45 167.053 116.136 167.196 115.962 167.36C115.768 167.512 115.635 167.799 115.564 168.221L115.332 169.516L115.315 168.514L123.455 178.709L119.536 179.759L116.291 175.346L114.836 173.296L114.578 173.365L114.46 175.837L114.114 181.212L110.195 182.262L112.069 168.227C112.183 167.341 112.397 166.604 112.709 166.018C113.006 165.435 113.411 164.974 113.924 164.636C114.437 164.297 115.084 164.023 115.867 163.813Z" fill="#D5F161" fill-opacity="0.29"/>
</g>
<defs>
<clipPath id="clip0_152_924">
<rect width="190" height="190" fill="white"/>
</clipPath>
</defs>
</svg>
