<svg width="190" height="190" viewBox="0 0 190 190" fill="none" xmlns="http://www.w3.org/2000/svg">
<path d="M86.9277 183.065L81.2761 182.105L83.4935 169.013L74.47 167.484L75.2323 162.987L89.9075 165.476L86.9277 183.065Z" fill="#E3FF04"/>
<path d="M63.2058 173.108C60.8848 172.164 59.3335 170.899 58.551 169.311C57.7667 167.725 57.8308 165.811 58.7416 163.571L59.0752 162.754L68.5862 166.624C68.9582 165.712 69.0333 164.942 68.8134 164.311C68.5935 163.681 68.0437 163.186 67.1641 162.827C66.3633 162.503 65.7054 162.431 65.1922 162.614C64.6791 162.798 64.309 163.17 64.0817 163.729L59.4453 161.841C60.0712 160.305 61.145 159.341 62.667 158.953C64.1871 158.563 66.0673 158.823 68.3076 159.734C70.6606 160.692 72.2641 161.983 73.1162 163.608C73.9666 165.232 73.9391 167.157 73.0319 169.384C72.1477 171.561 70.8457 172.952 69.1249 173.559C67.4051 174.164 65.4323 174.014 63.2058 173.108ZM64.254 169.985C65.7594 170.598 66.8892 170.227 67.6442 168.871L62.9822 166.976C62.7165 167.633 62.6945 168.23 62.9162 168.768C63.1361 169.305 63.5823 169.711 64.254 169.985Z" fill="#E3FF04"/>
<path d="M45.5576 163.134L47.4415 160.184L49.8861 161.745L52.6899 157.354C53.0253 156.832 53.1829 156.394 53.1627 156.042C53.1408 155.688 52.8979 155.362 52.4334 155.064L51.2092 154.283L52.8402 151.725C53.2635 151.833 53.7748 152.027 54.3759 152.307C54.977 152.586 55.4819 152.856 55.8896 153.117C57.1706 153.937 58.008 154.8 58.4039 155.709C58.7979 156.618 58.6366 157.634 57.9201 158.758L54.2366 164.523L55.8529 165.553L53.9691 168.504L52.1768 167.36L49.0065 170.259L45.7702 168.192L48.0023 164.695L45.5576 163.134Z" fill="#E3FF04"/>
<path d="M44.7964 155.92L46.7022 157.481L42.2894 159.963L43.7115 161.132L40.838 164.643L37.1106 161.586L39.8191 158.277L44.7964 155.92Z" fill="#E3FF04"/>
<path d="M32.4213 151.607C31.188 150.251 30.4083 148.862 30.083 147.44C29.7586 146.016 30.1517 144.796 31.2632 143.782L34.4921 147.33C34.121 147.669 34.0111 148.075 34.1623 148.546C34.2457 148.893 34.4445 149.239 34.7597 149.584C35.5981 150.504 36.2331 150.767 36.6656 150.372C36.9102 150.149 36.9386 149.831 36.7499 149.419C36.5593 149.008 36.1909 148.386 35.643 147.553C34.9521 146.542 34.4188 145.657 34.045 144.9C33.6712 144.14 33.5016 143.336 33.5355 142.488C33.5676 141.638 33.9809 140.852 34.7744 140.131C36.0645 138.954 37.4242 138.598 38.8536 139.065C40.2812 139.529 41.7051 140.542 43.1272 142.103C43.9408 142.997 44.585 143.954 45.0587 144.973C45.5306 145.992 45.7322 146.989 45.6634 147.964C45.5929 148.939 45.154 149.793 44.3477 150.529L41.115 146.981L41.1957 146.908C41.619 146.5 41.7564 146.043 41.6098 145.537C41.4614 145.03 41.2057 144.577 40.8438 144.181C39.8762 143.118 39.1432 142.814 38.6447 143.269C38.3909 143.501 38.3579 143.836 38.5458 144.273C38.7345 144.711 39.1084 145.364 39.6673 146.234C40.3417 147.28 40.8548 148.174 41.2066 148.92C41.5567 149.665 41.7152 150.449 41.6831 151.273C41.6492 152.099 41.2488 152.861 40.481 153.56C39.2421 154.689 37.9337 155.023 36.5556 154.561C35.1757 154.099 33.7976 153.114 32.4213 151.607Z" fill="#E3FF04"/>
<path d="M17.0576 125.693L29.2221 120.383L31.5129 125.635L19.3483 130.945L21.694 136.315L17.5121 138.14L10.541 122.175L14.7229 120.35L17.0576 125.693Z" fill="#E3FF04"/>
<path d="M11.9436 110.535C11.5606 108.481 11.5917 106.744 12.0389 105.324C12.486 103.904 13.4829 103.05 15.0296 102.762L20.2781 101.783C20.5667 101.73 20.793 101.617 20.9561 101.446C21.1201 101.275 21.176 101.054 21.1247 100.782L20.9524 99.8625L23.8809 99.3164C23.9276 99.3631 24.0092 99.485 24.1264 99.6829C24.2419 99.8808 24.3738 100.169 24.5223 100.544C24.6716 100.918 24.7935 101.362 24.8888 101.875C25.072 102.86 25.0748 103.699 24.8961 104.393C24.7156 105.087 24.3848 105.601 23.9029 105.936C24.5333 106.485 25.0757 107.13 25.5302 107.871C25.9847 108.611 26.3127 109.518 26.5124 110.59C27.1016 113.752 26.1377 115.568 23.6206 116.037C22.314 116.28 21.2511 116.116 20.432 115.538C19.611 114.962 18.9504 114.035 18.4492 112.756C17.9461 111.476 17.4953 109.766 17.0967 107.625L16.4333 107.746C15.9083 107.847 15.5427 108.104 15.3375 108.52C15.1322 108.936 15.0837 109.431 15.1909 110.008C15.2889 110.535 15.4676 110.974 15.726 111.323C15.9853 111.671 16.3188 111.805 16.7266 111.727L16.8255 111.708L17.7565 116.704C17.6786 116.738 17.5622 116.768 17.4083 116.795C16.1356 117.035 15.0113 116.617 14.0364 115.542C13.0614 114.467 12.3641 112.799 11.9436 110.535ZM19.4937 107.178C19.7631 108.622 20.1186 109.659 20.5603 110.29C21.0028 110.918 21.4866 111.183 22.0117 111.085C22.862 110.927 23.1799 110.271 22.9646 109.117C22.8427 108.453 22.5568 107.903 22.107 107.468C21.6552 107.033 21.165 106.866 20.6372 106.966L19.4937 107.178Z" fill="#E3FF04"/>
<path d="M24.519 98.7445L5.72421 99.1293L5.61792 93.9688L24.4127 93.584L24.519 98.7445Z" fill="#E3FF04"/>
<path d="M11.9748 80.2588L12.8324 74.3066L17.5788 80.1012L26.4007 76.1319L25.5651 81.9338L20.5109 84.1108L21.9732 86.1303L24.898 86.5518L24.165 91.6573L5.53516 88.9708L6.26818 83.8653L16.5342 85.346L11.9748 80.2588Z" fill="#E3FF04"/>
<path d="M29.3716 68.6816L24.6509 66.5962L26.8683 61.5713L31.589 63.6567L29.3716 68.6816Z" fill="#E3FF04"/>
<path d="M22.498 43.6904L26.1412 39.2666L36.3925 47.7037L42.2091 40.6374L45.7313 43.5365L36.2716 55.0266L22.498 43.6904Z" fill="#E3FF04"/>
<path d="M42.9371 28.0653C44.9089 26.5214 46.7763 25.8058 48.5411 25.9176C50.3077 26.0275 51.9359 27.0354 53.4267 28.9413L53.9728 29.634L45.8839 35.96C46.4895 36.737 47.1208 37.1878 47.7787 37.3124C48.4357 37.4352 49.1385 37.2025 49.8862 36.6161C50.5679 36.0837 50.9564 35.5495 51.0517 35.0144C51.147 34.4793 51.0077 33.9735 50.6339 33.4971L54.5775 30.411C55.601 31.7186 55.9025 33.1287 55.4828 34.6406C55.065 36.1534 53.9031 37.6551 51.9973 39.145C49.9961 40.7118 48.0793 41.4604 46.2467 41.3917C44.4141 41.3212 42.7575 40.3389 41.2768 38.445C39.8309 36.5932 39.272 34.7707 39.6018 32.9766C39.9317 31.1834 41.0441 29.546 42.9371 28.0653ZM45.1252 30.5283C43.8451 31.5307 43.6042 32.6971 44.4031 34.0285L48.3651 30.9278C47.9272 30.3689 47.4205 30.0509 46.8441 29.9749C46.2696 29.897 45.6969 30.0812 45.1252 30.5283Z" fill="#E3FF04"/>
<path d="M60.3688 17.7207L61.9925 20.8214L59.4196 22.1665L61.8349 26.7882C62.1208 27.338 62.4222 27.6916 62.7402 27.8474C63.0572 28.0041 63.4604 27.9537 63.9497 27.6971L65.2361 27.0264L66.6435 29.7166C66.3375 30.0272 65.9142 30.3727 65.3717 30.7538C64.8311 31.135 64.3464 31.4383 63.9167 31.6628C62.5698 32.3665 61.4042 32.6652 60.4202 32.5571C59.4352 32.4471 58.6352 31.8021 58.0195 30.6219L54.8492 24.5561L53.1486 25.4431L51.5249 22.3424L53.4088 21.3601L52.4778 17.1672L55.8754 15.3896L57.7959 19.0658L60.3688 17.7207Z" fill="#E3FF04"/>
<path d="M67.0048 20.6528L64.7031 21.5288L64.7435 16.4636L63.0245 17.116L61.4119 12.8754L65.9163 11.1602L67.4373 15.1588L67.0048 20.6528Z" fill="#E3FF04"/>
<path d="M76.9095 12.0656C78.6981 11.6697 80.2897 11.6844 81.6852 12.1096C83.0797 12.5347 83.9401 13.4821 84.2654 14.95L79.5814 15.9873C79.4714 15.4961 79.1755 15.1992 78.6944 15.0966C78.3545 14.994 77.9559 14.994 77.4996 15.0966C76.2828 15.366 75.7376 15.7857 75.8649 16.3574C75.9355 16.68 76.1966 16.8623 76.6493 16.9035C77.101 16.9429 77.8258 16.9319 78.8227 16.8705C80.0414 16.778 81.0731 16.7569 81.9161 16.8082C82.7609 16.8596 83.5434 17.1115 84.2617 17.5633C84.9801 18.0159 85.4547 18.7645 85.6875 19.81C86.0659 21.5161 85.6985 22.8731 84.5843 23.8819C83.4719 24.8889 81.8849 25.621 79.8233 26.0773C78.6431 26.3394 77.4932 26.4219 76.3744 26.3266C75.2575 26.2294 74.2926 25.9069 73.479 25.359C72.6671 24.812 72.1448 24.0065 71.9103 22.9437L76.5943 21.9064L76.6163 22.009C76.7574 22.5762 77.0854 22.9235 77.5986 23.0499C78.1135 23.1746 78.633 23.1801 79.1562 23.0646C80.5581 22.7549 81.1876 22.2693 81.0438 21.6096C80.9677 21.2751 80.6928 21.0799 80.2191 21.0231C79.7472 20.9672 78.995 20.9672 77.9614 21.0231C76.7198 21.0845 75.689 21.0818 74.868 21.0158C74.047 20.9498 73.2856 20.6988 72.5847 20.2608C71.8865 19.821 71.4247 19.0953 71.1992 18.0837C70.8382 16.4472 71.2011 15.1461 72.2878 14.1803C73.3772 13.2128 74.9175 12.5081 76.9095 12.0656Z" fill="#E3FF04"/>
<path d="M107.03 11.6254L105.583 24.8198L99.8832 24.1967L101.331 11.0023L95.5107 10.3646L96.0055 5.82715L113.323 7.72568L112.828 12.2631L107.03 11.6254Z" fill="#E3FF04"/>
<path d="M122.724 14.7319C124.698 15.4237 126.188 16.317 127.195 17.4111C128.201 18.506 128.446 19.7962 127.928 21.2815L126.162 26.321C126.066 26.5995 126.052 26.8506 126.118 27.076C126.186 27.3005 126.35 27.4581 126.609 27.5488L127.492 27.8603L126.51 30.6715C126.449 30.688 126.303 30.6972 126.074 30.6972C125.844 30.699 125.529 30.6715 125.128 30.6129C124.73 30.556 124.283 30.4424 123.79 30.272C122.845 29.9394 122.115 29.5225 121.602 29.0222C121.091 28.5237 120.811 27.9813 120.759 27.3949C119.97 27.6707 119.14 27.8209 118.271 27.8457C117.4 27.8695 116.451 27.7027 115.423 27.3436C112.388 26.2807 111.293 24.5425 112.139 22.1281C112.579 20.8728 113.251 20.0335 114.158 19.6102C115.067 19.185 116.201 19.0732 117.56 19.273C118.918 19.4736 120.625 19.9345 122.68 20.6547L122.903 20.017C123.079 19.5112 123.037 19.0668 122.779 18.6829C122.52 18.2971 122.114 18.0076 121.562 17.8142C121.053 17.6365 120.584 17.5723 120.155 17.6237C119.727 17.675 119.444 17.8976 119.304 18.2907L119.271 18.386L114.474 16.7074C114.486 16.6222 114.518 16.5058 114.569 16.3592C114.996 15.135 115.919 14.3681 117.336 14.0575C118.755 13.7478 120.551 13.9723 122.724 14.7319ZM121.874 22.9527C120.488 22.4671 119.411 22.26 118.645 22.3333C117.879 22.4048 117.408 22.6916 117.23 23.1946C116.946 24.0111 117.359 24.613 118.469 25.0016C119.106 25.2233 119.724 25.248 120.323 25.0749C120.924 24.9017 121.313 24.5608 121.489 24.0523L121.874 22.9527Z" fill="#E3FF04"/>
<path d="M126.691 31.5097L135.708 15.0166L140.234 17.4942L131.218 33.9873L126.691 31.5097Z" fill="#E3FF04"/>
<path d="M148.97 29.8302L153.706 33.5356L146.317 34.7671L145.371 44.3954L140.753 40.7852L141.38 35.3169L138.902 35.5808L137.081 37.9081L133.016 34.7268L144.616 19.9014L148.681 23.0827L142.289 31.2523L148.97 29.8302Z" fill="#E3FF04"/>
<path d="M150.356 50.6759L154.512 47.6191L157.767 52.0466L153.61 55.1033L150.356 50.6759Z" fill="#E3FF04"/>
<path d="M175.451 57.1533L177.478 62.5154L165.06 67.2068L168.293 75.7685L164.023 77.3811L158.764 63.4573L175.451 57.1533Z" fill="#E3FF04"/>
<path d="M178.835 82.6551C179.192 85.1345 178.883 87.1128 177.908 88.5889C176.935 90.0641 175.252 90.9749 172.857 91.3194L171.982 91.4441L170.519 81.2807C169.546 81.4218 168.842 81.7461 168.408 82.2519C167.976 82.7595 167.826 83.4843 167.961 84.4253C168.085 85.283 168.355 85.8859 168.771 86.2359C169.189 86.585 169.695 86.717 170.292 86.6317L171.007 91.587C169.365 91.8216 167.991 91.3799 166.887 90.2639C165.785 89.1497 165.062 87.395 164.717 85.0008C164.353 82.4865 164.657 80.4505 165.63 78.8947C166.602 77.3407 168.278 76.3923 170.658 76.0505C172.984 75.7161 174.842 76.1367 176.233 77.315C177.626 78.4952 178.493 80.2746 178.835 82.6551ZM175.606 83.3258C175.376 81.7177 174.487 80.9297 172.938 80.9618L173.653 85.9427C174.354 85.8401 174.881 85.5579 175.232 85.0961C175.586 84.6343 175.711 84.0442 175.606 83.3258Z" fill="#E3FF04"/>
<path d="M179.133 102.926L175.637 102.786L175.75 99.8835L170.542 99.6819C169.921 99.6572 169.464 99.7424 169.171 99.9385C168.878 100.136 168.72 100.511 168.698 101.064L168.64 102.515L165.609 102.398C165.49 101.977 165.399 101.438 165.338 100.778C165.277 100.118 165.256 99.5463 165.275 99.0625C165.334 97.5452 165.655 96.3851 166.239 95.5843C166.826 94.7826 167.783 94.4087 169.113 94.4628L175.952 94.7267L176.029 92.8135L179.525 92.9528L179.441 95.0749L183.542 96.3503L183.392 100.184L179.247 100.023L179.133 102.926Z" fill="#E3FF04"/>
<path d="M173.289 107.221L173.673 104.787L178.046 107.345L178.335 105.527L182.818 106.238L182.063 110.999L177.837 110.329L173.289 107.221Z" fill="#E3FF04"/>
<path d="M175.81 120.083C175.264 121.832 174.459 123.206 173.394 124.206C172.331 125.205 171.082 125.479 169.645 125.03L171.078 120.449C171.559 120.6 171.965 120.491 172.295 120.123C172.551 119.878 172.749 119.534 172.888 119.089C173.26 117.899 173.164 117.216 172.603 117.04C172.289 116.942 172.002 117.079 171.741 117.451C171.482 117.822 171.131 118.455 170.689 119.349C170.163 120.454 169.669 121.359 169.205 122.065C168.74 122.771 168.133 123.323 167.383 123.722C166.633 124.122 165.746 124.163 164.723 123.843C163.054 123.322 162.06 122.329 161.739 120.863C161.419 119.397 161.574 117.656 162.205 115.64C162.567 114.487 163.068 113.449 163.707 112.525C164.348 111.603 165.106 110.927 165.983 110.495C166.863 110.062 167.823 110.008 168.864 110.333L167.431 114.911L167.329 114.878C166.764 114.721 166.3 114.835 165.936 115.219C165.571 115.602 165.31 116.049 165.151 116.56C164.724 117.931 164.832 118.716 165.474 118.917C165.804 119.02 166.109 118.879 166.39 118.496C166.673 118.114 167.05 117.462 167.519 116.538C168.084 115.429 168.598 114.534 169.062 113.855C169.528 113.176 170.125 112.642 170.851 112.254C171.578 111.867 172.439 111.829 173.431 112.137C175.031 112.637 175.979 113.6 176.275 115.025C176.573 116.449 176.418 118.135 175.81 120.083Z" fill="#E3FF04"/>
<path d="M161.207 146.432L150.479 138.61L153.858 133.978L164.586 141.799L168.035 137.067L171.722 139.754L161.459 153.828L157.772 151.141L161.207 146.432Z" fill="#E3FF04"/>
<path d="M150.702 158.491C149.121 159.859 147.605 160.708 146.154 161.038C144.703 161.37 143.462 160.941 142.43 159.752L138.937 155.716C138.745 155.494 138.533 155.355 138.303 155.302C138.074 155.248 137.855 155.311 137.647 155.493L136.94 156.105L134.99 153.851C135.005 153.789 135.07 153.658 135.184 153.459C135.297 153.258 135.477 152.998 135.727 152.678C135.974 152.36 136.295 152.031 136.691 151.692C137.448 151.037 138.171 150.611 138.86 150.413C139.549 150.217 140.161 150.242 140.693 150.49C140.85 149.671 141.133 148.878 141.543 148.111C141.952 147.343 142.569 146.603 143.394 145.89C145.826 143.786 147.878 143.7 149.555 145.633C150.425 146.64 150.817 147.643 150.732 148.643C150.648 149.641 150.182 150.68 149.332 151.758C148.481 152.835 147.233 154.086 145.586 155.511L146.026 156.02C146.378 156.425 146.784 156.611 147.246 156.578C147.708 156.543 148.161 156.334 148.606 155.951C149.011 155.599 149.299 155.223 149.467 154.826C149.636 154.427 149.585 154.072 149.313 153.759L149.247 153.682L153.092 150.358C153.16 150.409 153.246 150.494 153.349 150.614C154.196 151.591 154.401 152.771 153.964 154.155C153.526 155.54 152.44 156.985 150.702 158.491ZM143.992 153.667C145.104 152.707 145.82 151.876 146.139 151.175C146.457 150.476 146.442 149.925 146.092 149.522C145.525 148.867 144.797 148.925 143.907 149.694C143.4 150.136 143.072 150.66 142.925 151.267C142.777 151.872 142.877 152.379 143.229 152.788L143.992 153.667Z" fill="#E3FF04"/>
<path d="M134.174 153.59L143.992 169.617L139.591 172.311L129.772 156.284L134.174 153.59Z" fill="#E3FF04"/>
<path d="M124.548 173.752L118.977 176.017L121.583 168.994L113.703 163.383L119.131 161.177L123.565 164.439L124.566 162.159L123.456 159.421L128.235 157.479L135.323 174.917L130.544 176.86L126.637 167.25L124.548 173.752Z" fill="#E3FF04"/>
<path d="M105.774 164.582L106.357 169.71L100.895 170.329L100.313 165.201L105.774 164.582Z" fill="#E3FF04"/>
</svg>
