<svg width="126" height="50" viewBox="0 0 126 50" fill="none" xmlns="http://www.w3.org/2000/svg">
<g clip-path="url(#clip0_104_517)">
<path d="M14.6735 4.8V10.688C15.0108 9.768 15.4708 8.92466 16.0535 8.158C16.6668 7.39133 17.3721 6.732 18.1695 6.18C18.9668 5.628 19.8408 5.19867 20.7915 4.892C21.7421 4.58533 22.7235 4.432 23.7355 4.432C24.9621 4.432 26.0661 4.616 27.0475 4.984C28.0595 5.32133 28.9028 5.812 29.5775 6.456C30.2828 7.06933 30.8195 7.79 31.1875 8.618C31.5555 9.446 31.7395 10.3353 31.7395 11.286C31.7395 12.6047 31.4481 13.7393 30.8655 14.69C30.3135 15.6407 29.5775 16.4993 28.6575 17.266C27.7681 18.002 26.7561 18.6767 25.6215 19.29C24.4868 19.9033 23.3368 20.5473 22.1715 21.222C22.6008 21.9887 23.1068 22.8473 23.6895 23.798C24.2721 24.7487 24.8855 25.73 25.5295 26.742C26.2041 27.754 26.8635 28.766 27.5075 29.778C28.1821 30.79 28.8261 31.756 29.4395 32.676C30.0835 33.596 30.6661 34.4393 31.1875 35.206C31.7088 35.942 32.1381 36.54 32.4755 37H27.5995C26.6488 35.4667 25.8668 34.2093 25.2535 33.228C24.6708 32.216 24.0881 31.2653 23.5055 30.376C22.9228 29.456 22.2635 28.49 21.5275 27.478C20.8221 26.466 19.8715 25.178 18.6755 23.614C17.6021 24.5033 16.6975 25.5307 15.9615 26.696C15.2561 27.8307 14.8268 29.226 14.6735 30.882V34.562C14.6735 35.0527 14.7501 35.436 14.9035 35.712C15.0875 35.9573 15.3021 36.1413 15.5475 36.264C15.8235 36.3867 16.1148 36.4633 16.4215 36.494C16.7588 36.5247 17.0961 36.54 17.4335 36.54V37H7.77348V36.54C8.11081 36.54 8.43281 36.5247 8.73948 36.494C9.07681 36.4633 9.36814 36.3867 9.61348 36.264C9.88948 36.1413 10.1041 35.9573 10.2575 35.712C10.4415 35.436 10.5335 35.0527 10.5335 34.562V7.238C10.5335 6.74733 10.4415 6.37933 10.2575 6.134C10.1041 5.858 9.88948 5.65867 9.61348 5.536C9.36814 5.41333 9.07681 5.33667 8.73948 5.306C8.43281 5.27533 8.11081 5.26 7.77348 5.26V4.8H14.6735ZM14.6735 11.976V28.352C15.1028 26.972 15.7161 25.8373 16.5135 24.948C17.3108 24.0587 18.1695 23.2767 19.0895 22.602C20.0401 21.9273 21.0061 21.2987 21.9875 20.716C22.9995 20.1333 23.9041 19.474 24.7015 18.738C25.4988 17.9713 26.1428 17.0667 26.6335 16.024C27.1548 14.9507 27.4155 13.6167 27.4155 12.022C27.4155 9.66067 26.9708 7.91267 26.0815 6.778C25.2228 5.61266 24.1035 5.03 22.7235 5.03C21.8035 5.03 20.8988 5.24466 20.0095 5.674C19.1201 6.07266 18.3075 6.60933 17.5715 7.284C16.8661 7.928 16.2528 8.664 15.7315 9.492C15.2101 10.32 14.8575 11.148 14.6735 11.976ZM42.0377 36.54C43.1417 36.54 44.3377 36.4633 45.6257 36.31C46.9444 36.1567 48.2324 35.9267 49.4897 35.62C50.7777 35.2827 51.9891 34.8533 53.1237 34.332C54.2584 33.78 55.2091 33.136 55.9757 32.4V37H32.9297V36.54C33.2671 36.54 33.5891 36.5247 33.8957 36.494C34.2331 36.4633 34.5244 36.3867 34.7697 36.264C35.0457 36.1413 35.2604 35.9573 35.4137 35.712C35.5977 35.436 35.6897 35.0527 35.6897 34.562V7.238C35.6897 6.74733 35.5977 6.37933 35.4137 6.134C35.2604 5.858 35.0457 5.65867 34.7697 5.536C34.5244 5.41333 34.2331 5.33667 33.8957 5.306C33.5891 5.27533 33.2671 5.26 32.9297 5.26V4.8H55.9757V9.4C55.2091 8.664 54.2584 8.03533 53.1237 7.514C51.9891 6.962 50.7777 6.53267 49.4897 6.226C48.2324 5.88867 46.9444 5.64333 45.6257 5.49C44.3377 5.33666 43.1417 5.26 42.0377 5.26H39.8297V27.846C40.3817 26.1593 41.1024 24.6873 41.9917 23.43C42.9117 22.1727 43.8777 21.13 44.8897 20.302C45.9324 19.4433 46.9904 18.8147 48.0637 18.416C49.1677 17.9867 50.1797 17.772 51.0997 17.772V21.498C50.1491 21.038 49.1371 20.808 48.0637 20.808C47.1744 20.808 46.2851 20.992 45.3957 21.36C44.5371 21.728 43.7397 22.2953 43.0037 23.062C42.2677 23.798 41.6237 24.764 41.0717 25.96C40.5197 27.1253 40.1057 28.5207 39.8297 30.146V36.54H42.0377ZM73.8352 37.046L73.7892 36.586C74.1266 36.586 74.4486 36.5707 74.7552 36.54C75.0926 36.5093 75.3686 36.4327 75.5832 36.31C75.7979 36.1873 75.9359 36.0033 75.9972 35.758C76.0892 35.482 76.0586 35.0987 75.9052 34.608L73.2832 26.926C72.8846 28.1833 72.3019 29.456 71.5352 30.744C70.7992 32.032 69.9406 33.1973 68.9592 34.24C67.9779 35.2827 66.8892 36.1413 65.6932 36.816C64.5279 37.46 63.3012 37.782 62.0132 37.782C60.6639 37.782 59.6519 37.46 58.9772 36.816C58.3332 36.172 57.9192 35.344 57.7352 34.332C57.5512 33.2893 57.5512 32.1393 57.7352 30.882C57.9499 29.6247 58.2259 28.3827 58.5632 27.156C58.9312 25.8987 59.3146 24.7333 59.7132 23.66C60.1119 22.5867 60.4339 21.7433 60.6792 21.13L66.9352 4.846H69.8792L80.0452 34.608C80.1986 35.0987 80.3979 35.482 80.6432 35.758C80.9192 36.0033 81.1952 36.1873 81.4712 36.31C81.7779 36.4327 82.0999 36.5093 82.4372 36.54C82.7746 36.5707 83.1119 36.586 83.4492 36.586L83.4952 37.046H73.8352ZM73.0072 26.144L66.4752 7.192L62.1052 18.738C61.8906 19.29 61.5839 20.072 61.1852 21.084C60.8172 22.0653 60.4646 23.1387 60.1272 24.304C59.7899 25.4693 59.5292 26.65 59.3452 27.846C59.1612 29.042 59.1459 30.1307 59.2992 31.112C59.4526 32.0627 59.8359 32.8447 60.4492 33.458C61.0932 34.0713 62.0592 34.378 63.3472 34.378C64.4819 34.378 65.5706 34.148 66.6132 33.688C67.6866 33.228 68.6526 32.63 69.5112 31.894C70.3699 31.1273 71.1059 30.2533 71.7192 29.272C72.3326 28.26 72.7619 27.2173 73.0072 26.144ZM107.692 12.16C107.692 13.5093 107.308 14.736 106.542 15.84C105.775 16.9133 104.794 17.9407 103.598 18.922C102.432 19.8727 101.144 20.8233 99.7336 21.774C98.3536 22.7247 97.0503 23.7827 95.8236 24.948C94.5969 26.0827 93.5389 27.3553 92.6496 28.766C91.7909 30.146 91.2696 31.7713 91.0856 33.642V34.562C91.0856 35.0527 91.1623 35.436 91.3156 35.712C91.4996 35.9573 91.7143 36.1413 91.9596 36.264C92.2356 36.3867 92.5269 36.4633 92.8336 36.494C93.1709 36.5247 93.5083 36.54 93.8456 36.54V37H84.1856V36.54C84.5229 36.54 84.8449 36.5247 85.1516 36.494C85.4889 36.4633 85.7803 36.3867 86.0256 36.264C86.3016 36.1413 86.5163 35.9573 86.6696 35.712C86.8536 35.436 86.9456 35.0527 86.9456 34.562V7.238C86.9456 6.74733 86.8536 6.37933 86.6696 6.134C86.5163 5.858 86.3016 5.65867 86.0256 5.536C85.7803 5.41333 85.4889 5.33667 85.1516 5.306C84.8449 5.27533 84.5229 5.26 84.1856 5.26V4.8H91.0856V10.458C91.4229 9.41533 91.8676 8.526 92.4196 7.79C93.0023 7.02333 93.6616 6.39466 94.3976 5.904C95.1336 5.41333 95.9156 5.04533 96.7436 4.8C97.6023 4.55467 98.4609 4.432 99.3196 4.432C100.393 4.432 101.42 4.616 102.402 4.984C103.414 5.32133 104.303 5.82733 105.07 6.502C105.867 7.146 106.496 7.94333 106.956 8.894C107.446 9.84467 107.692 10.9333 107.692 12.16ZM91.0856 11.976V31.342C91.4843 29.87 92.0669 28.6127 92.8336 27.57C93.6003 26.4967 94.4283 25.5307 95.3176 24.672C96.2376 23.7827 97.1729 22.9393 98.1236 22.142C99.0743 21.3447 99.9329 20.4707 100.7 19.52C101.497 18.5693 102.141 17.496 102.632 16.3C103.122 15.104 103.368 13.678 103.368 12.022C103.368 10.8567 103.23 9.84467 102.954 8.986C102.678 8.09667 102.294 7.376 101.804 6.824C101.313 6.24133 100.761 5.812 100.148 5.536C99.5343 5.26 98.8749 5.122 98.1696 5.122C97.4643 5.122 96.7436 5.27533 96.0076 5.582C95.2716 5.858 94.5816 6.28733 93.9376 6.87C93.2936 7.45267 92.7263 8.17333 92.2356 9.032C91.7449 9.89066 91.3616 10.872 91.0856 11.976ZM110.46 35.068C110.46 34.3627 110.705 33.7647 111.196 33.274C111.687 32.7833 112.285 32.538 112.99 32.538C113.695 32.538 114.293 32.7833 114.784 33.274C115.275 33.7647 115.52 34.3627 115.52 35.068C115.52 35.7733 115.275 36.3713 114.784 36.862C114.293 37.3527 113.695 37.598 112.99 37.598C112.285 37.598 111.687 37.3527 111.196 36.862C110.705 36.3713 110.46 35.7733 110.46 35.068Z" fill="white"/>
</g>
<defs>
<clipPath id="clip0_104_517">
<rect width="126" height="50" fill="white"/>
</clipPath>
</defs>
</svg>
