<svg width="494" height="494" viewBox="0 0 494 494" fill="none" xmlns="http://www.w3.org/2000/svg">
<g clip-path="url(#clip0_169_603)">
<path d="M158.841 333.857C158.841 333.857 158.147 334.688 156.82 336.098" stroke="#545454" stroke-width="0.712308" stroke-miterlimit="10"/>
<path d="M152.572 340.359C143.596 348.908 125.598 363.409 102.662 368.277C58.4742 377.659 -1.38622 361.65 -24.4086 299.605C-64.7664 190.822 60.482 22.2226 248.791 48.1069C437.101 73.9912 411.751 189.485 400.547 282.243C389.641 372.532 551.012 395.576 597.141 337.913" stroke="#545454" stroke-width="0.712308" stroke-miterlimit="10" stroke-dasharray="3.97 3.97"/>
<g opacity="0.46">
<path d="M246.035 137.883C246.105 136.879 246.249 135.881 246.467 134.898" stroke="#545454" stroke-width="0.712308" stroke-miterlimit="10"/>
<path d="M248.283 129.142C250.965 122.979 256.832 115.378 269.634 112.782C317.214 103.133 347.798 136.471 371.027 175.28C411.754 243.323 344.658 387.729 214.902 393.89C85.1458 400.052 78.4558 299.139 53.0352 240.567C11.7824 145.518 -80.3245 161.971 -104.617 205.963" stroke="#545454" stroke-width="0.712308" stroke-miterlimit="10" stroke-dasharray="4 4"/>
</g>
<path d="M555.245 205.005H266.403C255.154 205.005 246.035 214.124 246.035 225.372V408.238C246.035 419.487 255.154 428.606 266.403 428.606H555.245C566.494 428.606 575.613 419.487 575.613 408.238V225.372C575.613 214.124 566.494 205.005 555.245 205.005Z" fill="black"/>
<path d="M551.914 330.631H478.99V387.278H551.914V330.631Z" fill="#545454"/>
<path d="M545.81 282.293C545.804 274.704 542.965 267.391 537.85 261.786C532.734 256.181 525.709 252.687 518.152 251.991C510.595 251.294 503.051 253.443 496.996 258.018C490.941 262.594 486.813 269.264 485.419 276.724C484.026 284.184 485.468 291.896 489.463 298.348C493.458 304.8 499.718 309.528 507.017 311.606C514.315 313.685 522.127 312.963 528.922 309.582C535.716 306.202 541.003 300.406 543.748 293.331C545.117 289.812 545.816 286.069 545.81 282.293ZM533.219 282.293C533.225 284.546 532.8 286.778 531.966 288.871C530.65 292.211 528.358 295.077 525.39 297.096C522.421 299.115 518.913 300.193 515.323 300.189C515.17 300.189 515.015 300.189 514.868 300.172C511.749 300.093 508.704 299.199 506.037 297.579C503.37 295.959 501.173 293.669 499.664 290.937C498.155 288.206 497.387 285.127 497.436 282.007C497.486 278.886 498.35 275.833 499.944 273.15C501.538 270.468 503.806 268.248 506.523 266.713C509.24 265.178 512.311 264.38 515.432 264.399C518.552 264.418 521.614 265.253 524.312 266.821C527.01 268.388 529.251 270.635 530.813 273.337C532.399 276.055 533.231 279.146 533.224 282.293H533.219Z" fill="#D6D6D6"/>
<path d="M515.323 312.772V300.19C515.17 300.19 515.015 300.19 514.868 300.172C511.301 300.083 507.843 298.928 504.938 296.857C502.032 294.786 499.813 291.892 498.566 288.549C497.319 285.207 497.1 281.567 497.938 278.099C498.776 274.63 500.633 271.492 503.27 269.088L494.893 259.694C490.326 263.823 487.117 269.239 485.689 275.228C484.26 281.217 484.68 287.498 486.891 293.245C489.103 298.991 493.004 303.932 498.079 307.418C503.154 310.903 509.166 312.77 515.323 312.772Z" fill="#4A4A4A"/>
<path d="M271.659 328.036V327.924C271.659 326.962 272.042 326.04 272.722 325.361C273.402 324.681 274.324 324.299 275.286 324.299H344.537C345.014 324.299 345.486 324.393 345.926 324.576C346.367 324.759 346.767 325.027 347.104 325.365C347.441 325.703 347.708 326.103 347.89 326.544C348.072 326.985 348.165 327.458 348.164 327.935V328.047C348.164 328.525 348.07 328.998 347.887 329.439C347.704 329.88 347.436 330.281 347.098 330.619C346.761 330.957 346.359 331.224 345.918 331.407C345.477 331.59 345.004 331.684 344.526 331.683H275.286C274.808 331.682 274.336 331.587 273.895 331.403C273.454 331.219 273.054 330.95 272.717 330.611C272.38 330.273 272.113 329.871 271.931 329.429C271.75 328.987 271.657 328.514 271.659 328.036ZM344.526 336.909H275.286C274.322 336.909 273.397 337.292 272.715 337.974C272.033 338.656 271.65 339.581 271.65 340.545V340.655C271.65 341.133 271.743 341.606 271.926 342.047C272.109 342.489 272.377 342.89 272.714 343.228C273.052 343.565 273.453 343.833 273.894 344.016C274.335 344.199 274.808 344.293 275.286 344.293H344.515C345.48 344.293 346.405 343.91 347.088 343.228C347.77 342.545 348.153 341.62 348.153 340.655V340.545C348.153 339.582 347.771 338.659 347.091 337.977C346.411 337.295 345.489 336.911 344.526 336.909ZM271.659 353.166V353.276C271.658 353.754 271.752 354.227 271.935 354.668C272.117 355.109 272.385 355.51 272.723 355.848C273.06 356.186 273.461 356.454 273.903 356.637C274.344 356.82 274.817 356.914 275.295 356.914H344.524C345.489 356.914 346.414 356.531 347.096 355.848C347.779 355.166 348.162 354.241 348.162 353.276V353.166C348.162 352.688 348.068 352.215 347.885 351.774C347.702 351.333 347.434 350.932 347.096 350.594C346.758 350.256 346.357 349.988 345.916 349.806C345.474 349.623 345.001 349.529 344.524 349.53H275.286C274.323 349.532 273.401 349.916 272.72 350.598C272.04 351.279 271.659 352.203 271.659 353.166ZM275.351 369.535H344.472C345.451 369.534 346.39 369.145 347.082 368.453C347.774 367.761 348.164 366.822 348.164 365.843C348.164 364.863 347.775 363.924 347.083 363.232C346.39 362.54 345.451 362.15 344.472 362.15H275.351C274.866 362.15 274.386 362.246 273.937 362.431C273.489 362.616 273.082 362.888 272.739 363.231C272.396 363.574 272.124 363.981 271.939 364.429C271.754 364.878 271.658 365.358 271.659 365.843C271.659 366.822 272.048 367.761 272.74 368.453C273.432 369.146 274.372 369.535 275.351 369.535Z" fill="#4A4A4A"/>
<mask id="mask0_169_603" style="mask-type:luminance" maskUnits="userSpaceOnUse" x="271" y="254" width="78" height="64">
<path d="M346.946 254.808H272.877C272.204 254.808 271.659 255.354 271.659 256.027V315.913C271.659 316.586 272.204 317.131 272.877 317.131H346.946C347.619 317.131 348.164 316.586 348.164 315.913V256.027C348.164 255.354 347.619 254.808 346.946 254.808Z" fill="white"/>
</mask>
<g mask="url(#mask0_169_603)">
<path d="M346.946 254.808H272.877C272.204 254.808 271.659 255.354 271.659 256.027V315.913C271.659 316.586 272.204 317.131 272.877 317.131H346.946C347.619 317.131 348.164 316.586 348.164 315.913V256.027C348.164 255.354 347.619 254.808 346.946 254.808Z" fill="#D6D6D6"/>
<path d="M292.755 309.612L329.621 290.348C330.621 289.826 331.74 289.578 332.867 289.63C333.993 289.681 335.086 290.03 336.033 290.642L370.309 312.771V319.099H292.49L292.755 309.612Z" fill="#D4D4D4"/>
<path d="M268.193 303.066L292.794 283.203C293.879 282.329 295.222 281.834 296.615 281.795C298.008 281.756 299.376 282.175 300.508 282.988L349.32 317.887H266.72L268.193 303.066Z" fill="#545454"/>
<path d="M319.259 278.241C323.221 278.241 326.434 275.029 326.434 271.066C326.434 267.103 323.221 263.891 319.259 263.891C315.296 263.891 312.083 267.103 312.083 271.066C312.083 275.029 315.296 278.241 319.259 278.241Z" fill="#4A4A4A"/>
</g>
<path d="M571.384 189.14C568.976 187.265 566.007 186.255 562.955 186.274H258.693C251.535 186.274 245.712 191.62 245.712 198.191V416.985C245.712 422.36 249.594 426.906 254.927 428.392C256.154 428.732 257.42 428.904 258.693 428.903H562.955C570.111 428.903 575.936 423.559 575.936 416.985V198.191C575.936 194.57 574.17 191.322 571.384 189.14ZM572.857 416.985C572.857 422 568.414 426.078 562.955 426.078H258.693C258.104 426.078 257.516 426.03 256.935 425.933C252.311 425.17 248.792 421.447 248.792 416.985V219.456H572.857V416.985Z" fill="#A9A9A9"/>
<path d="M502.991 211.16H363.554C359.06 211.16 355.417 207.815 355.417 203.689C355.417 199.564 359.06 196.219 363.554 196.219H502.991C507.486 196.219 511.131 199.564 511.131 203.689C511.131 207.815 507.486 211.16 502.991 211.16Z" fill="black"/>
<path d="M258.632 207.856C258.227 207.858 257.836 207.709 257.535 207.437C257.392 207.311 257.277 207.156 257.199 206.982C257.121 206.808 257.08 206.62 257.08 206.429C257.08 206.239 257.121 206.05 257.199 205.876C257.277 205.702 257.392 205.547 257.535 205.421L264.977 198.591C265.28 198.322 265.67 198.173 266.075 198.173C266.48 198.173 266.87 198.322 267.173 198.591C267.316 198.717 267.43 198.872 267.508 199.046C267.587 199.22 267.627 199.408 267.627 199.599C267.627 199.79 267.587 199.978 267.508 200.152C267.43 200.326 267.316 200.481 267.173 200.607L259.73 207.437C259.429 207.709 259.038 207.858 258.632 207.856Z" fill="black"/>
<path d="M266.075 207.856C265.67 207.858 265.278 207.709 264.977 207.437L257.535 200.607C257.392 200.481 257.277 200.326 257.199 200.152C257.121 199.978 257.08 199.79 257.08 199.599C257.08 199.408 257.121 199.22 257.199 199.046C257.277 198.872 257.392 198.717 257.535 198.591C257.837 198.322 258.228 198.173 258.632 198.173C259.037 198.173 259.428 198.322 259.73 198.591L267.173 205.421C267.316 205.547 267.43 205.702 267.508 205.876C267.587 206.05 267.627 206.239 267.627 206.429C267.627 206.62 267.587 206.808 267.508 206.982C267.43 207.156 267.316 207.311 267.173 207.437C266.872 207.709 266.48 207.858 266.075 207.856Z" fill="black"/>
<path d="M297.744 198.175C294.834 198.175 292.468 200.347 292.468 203.014C292.469 203.705 292.629 204.386 292.936 205.005C293.765 206.685 295.606 207.856 297.744 207.856C299.881 207.856 301.72 206.685 302.546 205.005C302.855 204.387 303.015 203.705 303.015 203.014C303.015 200.347 300.649 198.175 297.744 198.175ZM295.574 203.014C295.574 201.917 296.547 201.022 297.744 201.022C298.941 201.022 299.9 201.917 299.9 203.014C299.9 204.112 298.93 205.005 297.744 205.005C296.557 205.005 295.574 204.11 295.574 203.014Z" fill="black"/>
<path d="M283.557 204.44H275.578C274.715 204.44 274.025 203.793 274.025 203.014C274.025 202.236 274.721 201.589 275.578 201.589H283.557C284.42 201.589 285.11 202.236 285.11 203.014C285.11 203.793 284.413 204.44 283.557 204.44Z" fill="black"/>
<path opacity="0.37" d="M571.384 189.14L558.383 205.004L546.541 219.454L448.182 339.496L441.017 348.237L440.644 348.69L433.478 357.435L377.24 426.071L375.168 428.599L374.924 428.897H258.693C257.42 428.898 256.153 428.726 254.927 428.386L255.078 428.202L256.935 425.927L405.592 243.943L410.768 237.6L425.595 219.45L432.369 211.153L437.401 204.998L444.576 196.212L452.702 186.267H562.949C566.003 186.25 568.975 187.262 571.384 189.14Z" fill="black"/>
<path opacity="0.37" d="M356.204 186.273L338.634 205.004L325.073 219.456L248.792 300.769L246.035 303.704L245.712 304.051V273.91L246.035 273.547L248.792 270.459L294.317 219.456L307.218 205.004L323.934 186.273H356.204Z" fill="black"/>
<path d="M223.164 234.803H10.1886C6.87496 234.803 4.18872 237.489 4.18872 240.803V345.712C4.18872 349.026 6.87496 351.712 10.1886 351.712H223.164C226.477 351.712 229.164 349.026 229.164 345.712V240.803C229.164 237.489 226.477 234.803 223.164 234.803Z" fill="#5F5F5F"/>
<path d="M224.926 257.252H8.27576V347.293H224.926V257.252Z" fill="black"/>
<path d="M19.0568 251.235C18.6593 251.239 18.2746 251.095 17.9785 250.829C17.8393 250.706 17.7278 250.555 17.6515 250.385C17.5751 250.216 17.5356 250.032 17.5356 249.846C17.5356 249.66 17.5751 249.476 17.6515 249.307C17.7278 249.137 17.8393 248.986 17.9785 248.862L25.2378 242.198C25.5332 241.937 25.9141 241.792 26.3086 241.792C26.7031 241.792 27.084 241.937 27.3794 242.198C27.5186 242.322 27.6301 242.473 27.7064 242.643C27.7828 242.812 27.8222 242.996 27.8222 243.182C27.8222 243.368 27.7828 243.552 27.7064 243.721C27.6301 243.891 27.5186 244.042 27.3794 244.165L20.12 250.829C19.8279 251.091 19.4492 251.236 19.0568 251.235Z" fill="black"/>
<path d="M26.3139 251.235C25.9164 251.239 25.5316 251.095 25.2356 250.829L17.9763 244.165C17.8371 244.042 17.7256 243.891 17.6493 243.721C17.5729 243.552 17.5334 243.368 17.5334 243.182C17.5334 242.996 17.5729 242.812 17.6493 242.643C17.7256 242.473 17.8371 242.322 17.9763 242.198C18.2717 241.937 18.6525 241.792 19.0471 241.792C19.4416 241.792 19.8225 241.937 20.1178 242.198L27.3772 248.862C27.5164 248.986 27.6279 249.137 27.7042 249.307C27.7806 249.476 27.82 249.66 27.82 249.846C27.82 250.032 27.7806 250.216 27.7042 250.385C27.6279 250.555 27.5164 250.706 27.3772 250.829C27.085 251.091 26.7062 251.235 26.3139 251.235Z" fill="black"/>
<path d="M57.2061 241.793C54.368 241.793 52.0603 243.911 52.0603 246.514C52.0606 247.188 52.2171 247.852 52.5175 248.455C53.3241 250.094 55.1206 251.238 57.2061 251.238C59.2916 251.238 61.0881 250.094 61.8904 248.455C62.1908 247.852 62.3473 247.188 62.3476 246.514C62.3476 243.911 60.0508 241.793 57.2061 241.793ZM55.0904 246.514C55.0904 245.436 56.0372 244.573 57.2061 244.573C58.375 244.573 59.3197 245.436 59.3197 246.514C59.3197 247.593 58.3707 248.455 57.2061 248.455C56.0415 248.455 55.0904 247.584 55.0904 246.514Z" fill="black"/>
<path d="M43.3668 247.905H35.5899C35.2057 247.919 34.8314 247.781 34.5487 247.521C34.266 247.26 34.0976 246.898 34.0802 246.514C34.0802 245.747 34.7596 245.125 35.5899 245.125H43.3668C44.2036 245.125 44.8765 245.747 44.8765 246.514C44.8765 247.282 44.2036 247.905 43.3668 247.905Z" fill="black"/>
<path d="M207.884 276.915H96.8715V280.702H207.884V276.915Z" fill="#4A4A4A"/>
<path d="M207.884 287.265H96.8715V291.052H207.884V287.265Z" fill="#4A4A4A"/>
<path d="M207.884 297.612H96.8715V301.399H207.884V297.612Z" fill="#4A4A4A"/>
<path d="M207.884 307.96H96.8715V311.747H207.884V307.96Z" fill="#4A4A4A"/>
<path d="M154.983 318.308H96.8715V322.095H154.983V318.308Z" fill="#4A4A4A"/>
<path d="M50.3911 328.83C63.0131 328.83 73.2453 318.598 73.2453 305.976C73.2453 293.354 63.0131 283.122 50.3911 283.122C37.769 283.122 27.5369 293.354 27.5369 305.976C27.5369 318.598 37.769 328.83 50.3911 328.83Z" stroke="#474747" stroke-width="0.427385" stroke-miterlimit="10"/>
<path d="M45.2475 324.654C57.8695 324.654 68.1017 314.422 68.1017 301.8C68.1017 289.178 57.8695 278.946 45.2475 278.946C32.6255 278.946 22.3933 289.178 22.3933 301.8C22.3933 314.422 32.6255 324.654 45.2475 324.654Z" fill="#5A5A5A"/>
<path d="M193.775 17.5929C195.723 19.2726 197.348 21.2933 198.571 23.5561C199.133 24.5936 199.607 25.6756 199.991 26.7911C200.103 27.1189 200.206 27.4489 200.303 27.7788C201.836 33.0451 201.283 38.6993 198.76 43.5691C196.236 48.4388 191.935 52.1506 186.749 53.9349C186.25 54.1053 185.752 54.2584 185.252 54.3899C180.03 55.7917 174.471 55.1601 169.696 52.6226C164.922 50.0851 161.288 45.8307 159.528 40.7183C157.768 35.6058 158.013 30.0161 160.214 25.0775C162.415 20.1389 166.408 16.2193 171.387 14.1099C171.863 13.9072 172.348 13.7195 172.847 13.5491C176.383 12.3291 180.179 12.0605 183.852 12.7703C187.525 13.48 190.947 15.1432 193.775 17.5929Z" fill="black"/>
<path d="M197.036 27.8074C197.264 28.4731 197.459 29.1424 197.62 29.8153C198.789 34.7139 198.189 39.8681 195.926 44.367C193.663 48.866 189.882 52.4201 185.252 54.4013C184.777 54.604 184.29 54.7917 183.794 54.9642C180.512 56.091 177.005 56.4017 173.575 55.8694C170.146 55.337 166.898 53.9778 164.112 51.909C161.326 49.8402 159.086 47.1241 157.585 43.9954C156.083 40.8667 155.367 37.4195 155.496 33.9518C155.557 32.3552 155.799 30.7708 156.217 29.2287C156.217 29.192 156.232 29.1726 156.232 29.1726C157.144 25.8108 158.866 22.7237 161.247 20.1808C163.628 17.638 166.595 15.7167 169.89 14.5849C170.386 14.4145 170.886 14.2636 171.384 14.1298C176.597 12.749 182.139 13.3918 186.897 15.9289C191.656 18.4661 195.278 22.7097 197.036 27.8074Z" fill="black"/>
<path d="M188.954 46.8688C195.643 40.1798 195.643 29.3348 188.954 22.6458C182.265 15.9568 171.42 15.9568 164.731 22.6458C158.042 29.3348 158.042 40.1798 164.731 46.8688C171.42 53.5578 182.265 53.5578 188.954 46.8688Z" fill="#636363"/>
<path d="M162.165 40.8223C161.155 37.885 160.963 34.7285 161.609 31.6905C162.255 28.6525 163.715 25.8473 165.833 23.5749C167.95 21.3025 170.645 19.6484 173.63 18.7896C176.615 17.9308 179.777 17.8995 182.778 18.6992C180.658 17.8726 178.394 17.477 176.118 17.5354C173.843 17.5939 171.603 18.1052 169.527 19.0396C167.452 19.9739 165.584 21.3126 164.032 22.9772C162.48 24.6419 161.275 26.5992 160.488 28.7348C159.701 30.8704 159.348 33.1414 159.449 35.4151C159.55 37.6887 160.103 39.9195 161.076 41.977C162.049 44.0345 163.422 45.8774 165.115 47.3981C166.809 48.9188 168.788 50.0867 170.938 50.8335C166.84 48.7412 163.7 45.1575 162.165 40.8201V40.8223Z" fill="black"/>
<path d="M174.514 25.0826L173.867 23.2344L171.986 23.8814L172.633 25.7275C169.642 26.9244 169.057 28.3284 170.155 31.5203C171.11 34.2959 171.699 35.2276 172.989 35.5834C174.44 36.0148 177.102 35.7991 178.406 36.39C178.948 36.6057 179.097 36.8667 179.323 37.5072C179.355 37.5978 179.39 37.697 179.427 37.807C180.033 39.5668 180.048 40.0952 178.736 40.5481C177.425 41.001 177.037 40.2634 176.565 38.8918C176.458 38.5829 176.371 38.2673 176.306 37.9472L172.993 39.0859C173.12 39.7932 173.304 40.4892 173.543 41.1671C174.621 44.3287 176.252 44.773 178.92 43.988L179.72 46.3129L181.598 45.6659L180.787 43.3108C183.736 42.0513 184.217 40.451 183.11 36.8257C183.015 36.5151 182.907 36.1895 182.791 35.8466C181.732 32.7755 180.736 32.7841 179.166 32.59C178.057 32.4714 176.871 32.5124 175.592 32.3851C174.423 32.2881 174.283 32.1694 173.748 30.6166C173.235 29.1264 173.409 28.6756 174.486 28.2961C175.736 27.8647 176.133 28.4298 176.562 29.6828C176.688 30.0181 176.796 30.3601 176.884 30.7072L180.164 29.5771C180.04 28.9454 179.871 28.3234 179.657 27.7159C178.682 24.8821 177.358 24.2351 174.514 25.0826Z" fill="#D6D6D6"/>
<path d="M481.406 151.078C481.631 153.265 481.456 155.475 480.89 157.6C480.632 158.574 480.292 159.524 479.876 160.442C479.756 160.714 479.626 160.979 479.493 161.242C477.357 165.416 473.697 168.609 469.272 170.158C464.846 171.707 459.994 171.494 455.722 169.563C455.312 169.377 454.913 169.181 454.525 168.97C450.472 166.769 447.402 163.116 445.931 158.745C444.461 154.374 444.699 149.609 446.598 145.406C448.497 141.203 451.916 137.875 456.168 136.09C460.42 134.304 465.19 134.194 469.52 135.781C469.937 135.933 470.349 136.102 470.756 136.288C473.672 137.603 476.191 139.662 478.06 142.258C479.929 144.854 481.083 147.895 481.406 151.078Z" fill="black"/>
<path d="M477.444 159.342C477.196 159.891 476.925 160.422 476.63 160.933C474.483 164.663 471.088 167.514 467.043 168.984C462.999 170.454 458.566 170.449 454.525 168.969C454.108 168.815 453.695 168.646 453.287 168.462C450.584 167.239 448.219 165.376 446.398 163.034C444.576 160.692 443.353 157.942 442.833 155.021C442.313 152.1 442.512 149.096 443.414 146.269C444.316 143.443 445.892 140.878 448.007 138.797C448.982 137.84 450.062 136.997 451.227 136.283L451.268 136.257C453.807 134.701 456.689 133.79 459.661 133.604C462.633 133.419 465.606 133.964 468.319 135.191C468.728 135.377 469.127 135.575 469.516 135.785C473.567 137.985 476.636 141.636 478.107 146.006C479.577 150.376 479.34 155.14 477.444 159.342Z" fill="black"/>
<path d="M465.763 165.665C473.373 162.929 477.324 154.54 474.587 146.93C471.85 139.32 463.462 135.369 455.852 138.106C448.241 140.843 444.291 149.231 447.028 156.841C449.765 164.452 458.153 168.402 465.763 165.665Z" fill="#636363"/>
<path d="M448.117 146.99C449.211 144.57 450.942 142.492 453.126 140.98C455.309 139.468 457.863 138.578 460.513 138.406C463.164 138.234 465.811 138.786 468.172 140.003C470.533 141.22 472.518 143.056 473.916 145.314C473.059 143.593 471.871 142.058 470.421 140.795C468.971 139.533 467.287 138.569 465.464 137.958C463.641 137.347 461.716 137.1 459.798 137.233C457.88 137.366 456.007 137.875 454.286 138.732C452.564 139.589 451.029 140.776 449.767 142.226C448.504 143.677 447.54 145.361 446.929 147.184C446.318 149.007 446.072 150.932 446.204 152.85C446.337 154.768 446.847 156.641 447.703 158.362C446.381 154.658 446.53 150.588 448.117 146.99Z" fill="black"/>
<path d="M465.03 144.433L465.72 142.923L464.171 142.224L463.483 143.734C460.921 142.724 459.735 143.255 458.547 145.89C457.514 148.177 457.332 149.102 457.925 150.081C458.572 151.202 460.356 152.63 460.822 153.747C461.038 154.204 460.973 154.448 460.738 154.981C460.706 155.056 460.669 155.138 460.628 155.227C459.981 156.678 459.67 157.017 458.59 156.521C457.509 156.025 457.699 155.347 458.21 154.217C458.325 153.967 458.456 153.724 458.603 153.491L455.874 152.257C455.539 152.771 455.245 153.312 454.997 153.874C453.819 156.48 454.565 157.705 456.685 158.781L455.823 160.696L457.371 161.397L458.247 159.456C460.82 160.401 462.058 159.687 463.496 156.784C463.618 156.534 463.743 156.268 463.871 155.988C465.014 153.456 464.387 152.878 463.526 151.836C462.905 151.112 462.144 150.443 461.424 149.613C460.753 148.867 460.736 148.711 461.314 147.432C461.868 146.203 462.247 146.02 463.132 146.419C464.165 146.885 464.078 147.469 463.613 148.5C463.447 148.869 463.334 149.115 463.211 149.326L465.914 150.547C466.206 150.081 466.466 149.595 466.69 149.093C467.74 146.76 467.296 145.582 465.03 144.433Z" fill="#D6D6D6"/>
<g opacity="0.7">
<path d="M350.554 25.4495C351.729 26.4871 352.706 27.7294 353.437 29.1159C353.77 29.7536 354.052 30.4172 354.278 31.1C354.345 31.3027 354.406 31.5033 354.462 31.706C355.357 34.9312 354.977 38.3771 353.401 41.3298C351.825 44.2825 349.173 46.5155 345.995 47.5661C345.691 47.6675 345.384 47.7559 345.08 47.8336C341.886 48.64 338.506 48.2071 335.618 46.622C332.731 45.0368 330.55 42.417 329.516 39.2895C328.482 36.1621 328.67 32.7589 330.043 29.7647C331.416 26.7705 333.872 24.4073 336.917 23.1505C337.208 23.0298 337.508 22.9176 337.812 22.8184C339.98 22.1017 342.299 21.9675 344.535 22.4293C346.771 22.8911 348.847 23.9327 350.554 25.4495Z" fill="black"/>
<path d="M352.469 31.7079C352.604 32.1117 352.718 32.522 352.812 32.9372C353.485 35.934 353.079 39.0724 351.665 41.7992C350.251 44.5259 347.92 46.6659 345.082 47.8419C344.789 47.9627 344.491 48.0727 344.187 48.1741C342.176 48.8369 340.034 49.0001 337.945 48.6497C335.857 48.2992 333.885 47.4456 332.2 46.1626C330.515 44.8795 329.168 43.2056 328.275 41.2854C327.382 39.3652 326.97 37.2565 327.074 35.1413C327.123 34.1675 327.282 33.2023 327.549 32.2643C327.549 32.2428 327.549 32.232 327.549 32.232C328.131 30.1873 329.205 28.3162 330.677 26.7821C332.148 25.2479 333.973 24.0973 335.992 23.4306C336.298 23.3314 336.602 23.2408 336.909 23.1654C340.102 22.3599 343.481 22.7932 346.368 24.378C349.255 25.9627 351.434 28.5815 352.469 31.7079Z" fill="black"/>
<path d="M349.339 40.6239C352.014 35.5076 350.035 29.1918 344.919 26.5171C339.802 23.8423 333.486 25.8216 330.812 30.9379C328.137 36.0541 330.116 42.3699 335.233 45.0447C340.349 47.7194 346.665 45.7401 349.339 40.6239Z" fill="#636363"/>
<path d="M331.092 39.3902C330.498 37.5902 330.404 35.6625 330.821 33.8132C331.238 31.964 332.149 30.2628 333.458 28.8918C334.767 27.5207 336.424 26.5313 338.252 26.0295C340.08 25.5276 342.01 25.5321 343.836 26.0426C342.554 25.5525 341.188 25.3197 339.816 25.3575C338.444 25.3953 337.093 25.7029 335.84 26.2629C334.587 26.8228 333.456 27.6241 332.513 28.6209C331.57 29.6178 330.832 30.7907 330.342 32.0726C329.852 33.3546 329.619 34.7206 329.657 36.0925C329.694 37.4645 330.002 38.8156 330.562 40.0686C331.122 41.3217 331.923 42.4522 332.92 43.3956C333.917 44.339 335.09 45.0768 336.372 45.5669C333.886 44.2598 331.996 42.0491 331.092 39.3902Z" fill="black"/>
<path d="M338.746 29.8769L338.371 28.7446L337.219 29.1264L337.594 30.2586C335.759 30.966 335.392 31.8179 336.037 33.774C336.6 35.4734 336.952 36.0471 337.737 36.2757C338.619 36.5518 340.245 36.4396 341.036 36.8063C341.366 36.9464 341.455 37.1017 341.588 37.4942C341.608 37.5503 341.627 37.6128 341.649 37.6775C342.007 38.7559 342.011 39.0794 341.207 39.3468C340.402 39.6142 340.171 39.1613 339.893 38.3202C339.831 38.1302 339.78 37.9364 339.742 37.7401L337.713 38.413C337.786 38.8449 337.894 39.2704 338.034 39.6854C338.681 41.6264 339.66 41.9068 341.293 41.4474L341.765 42.8708L342.917 42.4912L342.438 41.0484C344.248 40.3 344.552 39.3231 343.905 37.106C343.849 36.9162 343.786 36.7178 343.717 36.5086C343.094 34.6259 342.486 34.6237 341.53 34.4943C340.853 34.4123 340.128 34.4296 339.35 34.3412C338.638 34.2743 338.552 34.201 338.237 33.2499C337.935 32.3355 338.045 32.0551 338.705 31.8373C339.473 31.585 339.708 31.9322 339.962 32.6999C340.035 32.9058 340.098 33.1153 340.15 33.3275L342.16 32.6611C342.088 32.2751 341.989 31.8946 341.864 31.5224C341.291 29.7863 340.488 29.3808 338.746 29.8769Z" fill="#D6D6D6"/>
</g>
<g opacity="0.7">
<path d="M203.86 441.378C204.793 443.574 205.319 445.922 205.41 448.307C205.451 449.399 205.402 450.492 205.264 451.576C205.223 451.896 205.175 452.223 205.119 452.525C204.23 457.53 201.45 462.001 197.355 465.012C193.26 468.024 188.163 469.344 183.121 468.7C182.638 468.639 182.161 468.56 181.691 468.465C176.793 467.47 172.453 464.658 169.543 460.595C166.632 456.532 165.366 451.519 165.998 446.561C166.631 441.603 169.115 437.068 172.953 433.866C176.79 430.664 181.697 429.032 186.688 429.298C187.167 429.324 187.648 429.368 188.131 429.43C191.57 429.869 194.832 431.204 197.593 433.3C200.353 435.397 202.514 438.183 203.86 441.378Z" fill="black"/>
<path d="M202.391 451.205C202.309 451.852 202.194 452.488 202.054 453.112C201.013 457.66 198.4 461.694 194.674 464.503C190.949 467.312 186.352 468.716 181.693 468.467C181.214 468.441 180.733 468.397 180.25 468.335C177.06 467.926 174.017 466.746 171.385 464.897C168.753 463.048 166.611 460.586 165.144 457.724C163.676 454.861 162.928 451.685 162.964 448.468C162.999 445.252 163.817 442.093 165.348 439.264C166.054 437.962 166.905 436.745 167.884 435.634L167.921 435.593C170.058 433.173 172.756 431.314 175.778 430.177C178.799 429.04 182.054 428.661 185.256 429.071C185.739 429.132 186.216 429.211 186.686 429.306C191.585 430.299 195.927 433.108 198.84 437.17C201.753 441.232 203.022 446.246 202.391 451.205Z" fill="black"/>
<path d="M193.968 459.926C200.168 453.726 200.168 443.674 193.968 437.475C187.768 431.275 177.717 431.275 171.517 437.475C165.317 443.674 165.317 453.726 171.517 459.926C177.717 466.125 187.768 466.125 193.968 459.926Z" fill="#636363"/>
<path d="M168.057 447.72C168.421 444.863 169.555 442.16 171.338 439.898C173.121 437.637 175.486 435.903 178.178 434.882C180.871 433.862 183.791 433.593 186.625 434.104C189.459 434.615 192.1 435.887 194.267 437.784C192.834 436.263 191.115 435.039 189.208 434.184C187.302 433.328 185.245 432.858 183.156 432.799C181.067 432.741 178.987 433.095 177.035 433.842C175.083 434.59 173.298 435.715 171.783 437.154C170.267 438.592 169.05 440.316 168.203 442.226C167.355 444.137 166.892 446.195 166.842 448.285C166.792 450.374 167.155 452.452 167.91 454.401C168.665 456.35 169.797 458.13 171.242 459.64C168.694 456.221 167.554 451.955 168.057 447.72Z" fill="black"/>
<path d="M184.777 439.702L185.006 437.905L183.179 437.672L182.948 439.469C179.972 439.236 178.909 440.161 178.514 443.267C178.169 445.965 178.275 446.981 179.202 447.796C180.231 448.751 182.532 449.663 183.373 450.686C183.736 451.093 183.753 451.365 183.679 451.991C183.679 452.081 183.656 452.178 183.643 452.282C183.427 453.994 183.211 454.438 181.943 454.279C180.675 454.119 180.649 453.345 180.818 452.01C180.856 451.71 180.914 451.412 180.99 451.119L177.77 450.707C177.585 451.347 177.453 452.002 177.373 452.663C176.981 455.739 178.145 456.761 180.684 457.212L180.397 459.472L182.224 459.705L182.515 457.417C185.482 457.578 186.539 456.444 187.106 452.978C187.154 452.681 187.199 452.366 187.242 452.034C187.622 449.047 186.789 448.646 185.564 447.841C184.702 447.287 183.688 446.834 182.679 446.204C181.747 445.643 181.678 445.488 181.872 443.978C182.056 442.527 182.39 442.216 183.436 442.35C184.654 442.505 184.749 443.137 184.594 444.356C184.538 444.787 184.501 445.081 184.441 445.337L187.631 445.745C187.785 445.169 187.9 444.583 187.973 443.991C188.325 441.246 187.488 440.166 184.777 439.702Z" fill="#D6D6D6"/>
</g>
<path d="M377.917 237.079C377.872 237.165 377.846 239.688 377.831 242.069C377.814 244.799 376.917 247.776 375.299 250.48L363.964 269.329C362.105 272.437 362.493 275.888 364.811 276.839C366.826 277.665 369.625 276.302 371.34 273.662L391.849 242.796L377.917 237.079Z" fill="#A9A9A9"/>
<g style="mix-blend-mode:multiply" opacity="0.2">
<path d="M377.844 240.333C377.859 238.608 377.883 237.143 377.917 237.079L391.849 242.794L371.34 273.66C369.884 275.901 367.65 277.206 365.775 277.048C371.693 268.943 376.587 258.367 381.161 251.034C385.837 244.502 380.555 243.525 377.844 240.333Z" fill="#363636"/>
</g>
<path d="M300.303 226.091C300.303 226.091 332.091 216.772 369.237 241.015L381.685 221.943C344.539 197.698 340.277 164.848 340.277 164.848L300.303 226.091Z" fill="black"/>
<g style="mix-blend-mode:multiply" opacity="0.2">
<path d="M311.71 208.624C328.817 221.85 348.339 224.669 370.041 229.744C371.926 230.152 373.788 230.656 375.621 231.253L369.243 241.023C332.097 216.78 300.31 226.099 300.31 226.099L311.71 208.624Z" fill="#878787"/>
</g>
<path d="M335.526 203.148C346.633 186.184 350.038 168.766 343.13 164.243C336.223 159.72 321.619 169.806 310.511 186.77C299.404 203.733 296 221.152 302.907 225.675C309.815 230.197 324.419 220.112 335.526 203.148Z" fill="#A9A9A9"/>
<path d="M339.184 166.525C333.333 162.706 320.205 172.445 309.879 188.278C299.553 204.11 295.913 220.041 301.764 223.863C307.615 227.684 320.742 217.942 331.071 202.11C341.399 186.278 345.037 170.345 339.184 166.525Z" fill="#252525"/>
<g style="mix-blend-mode:multiply" opacity="0.2">
<path d="M341.187 179.854C340.952 179.545 340.667 179.277 340.344 179.062C336.177 176.343 326.839 183.276 319.483 194.545C312.126 205.813 309.542 217.155 313.707 219.875C314.034 220.084 314.393 220.238 314.77 220.33C320.065 216.392 325.916 210.008 331.07 202.108C336.225 194.208 339.714 186.285 341.187 179.854Z" fill="#878787"/>
</g>
<path d="M391.449 228.159L378.543 219.748L378.327 220.53C376.377 227.345 372.47 233.437 367.089 238.051L365.985 239L378.89 247.424C383.027 250.124 388.488 249.083 391.086 245.099L394.239 240.27C396.83 236.276 395.585 230.859 391.449 228.159Z" fill="#BCBCBC"/>
<path d="M365.976 238.987L370.268 241.791L373.542 243.93L378.886 247.417C383.018 250.111 388.477 249.076 391.08 245.09L394.231 240.255C396.832 236.278 395.583 230.854 391.451 228.161L385.559 224.311L382.6 222.383L378.541 219.739L378.325 220.519C376.374 227.335 372.466 233.427 367.085 238.042L365.976 238.987Z" fill="#545454"/>
<path d="M370.268 241.791L373.542 243.93C378.988 238.387 383.098 231.675 385.559 224.305L382.6 222.376C380.02 229.702 375.802 236.342 370.268 241.791Z" fill="#A9A9A9"/>
<path d="M317.693 193.376C316.157 195.729 316.33 198.858 318.124 201.295L324.896 210.478C329.33 205.134 333.138 199.299 336.247 193.089L325.116 190.585C322.161 189.923 319.226 191.017 317.693 193.376Z" fill="#5A5A5A"/>
<path d="M321.275 195.714C319.886 197.843 317.958 199.046 316.962 198.399C315.965 197.752 316.295 195.505 317.686 193.377C319.077 191.248 321.003 190.047 322 190.694C322.996 191.341 322.664 193.588 321.275 195.714Z" fill="black"/>
<g style="mix-blend-mode:multiply" opacity="0.2">
<path d="M367.08 238.043C369.567 235.904 371.75 233.437 373.572 230.71C380.283 232.694 387.674 237.076 394.895 239.004C394.71 239.441 394.487 239.861 394.231 240.26L391.08 245.095C388.477 249.08 383.018 250.116 378.886 247.422L373.542 243.935L370.268 241.795L365.976 238.992L367.08 238.043Z" fill="#BCBCBC"/>
</g>
<path d="M446.275 262.754C445.055 268.853 432.723 273.598 432.723 273.598C432.723 273.598 431.429 279.751 433.46 286.46C433.56 286.794 433.676 287.133 433.788 287.469C434.169 288.556 434.633 289.611 435.175 290.627C435.65 291.515 436.189 292.368 436.788 293.178C443.159 301.783 442.611 316.28 438.822 324.819C435.033 333.357 426.895 355.312 426.895 355.312C413.207 363.984 388.543 355.312 388.543 355.312C388.543 355.312 387.465 339.048 387.323 337.694C387.18 336.339 382.578 332.274 382.578 332.274C387.454 330.51 398.568 323.328 398.568 323.328C413.071 327.258 424.814 309.866 420.387 296.767C420.158 296.083 419.881 295.416 419.556 294.772C416.968 289.691 412.474 289.057 408.611 289.693C406.124 290.147 403.728 291.009 401.52 292.242C403.407 290.877 405.436 289.72 407.572 288.791C410.341 287.551 412.685 286.807 413.973 285.841C414.404 285.524 414.835 284.905 415.254 284.105C416.578 281.608 417.796 277.333 418.273 274.874C418.4 274.321 418.472 273.757 418.489 273.19C418.45 272.543 416.625 271.223 414.428 269.524C411.344 267.151 407.526 264.037 406.832 261.085C405.659 256.025 409.002 249.439 409.183 248.074C409.364 246.708 406.879 244.912 406.789 242.563C406.713 240.622 411.219 242.615 416.863 238.226C418.021 237.325 419.134 234.174 420.432 232.852C427.26 225.886 435.024 227.206 435.024 227.206C435.024 227.206 442.07 229.011 445.05 234.025C448.031 239.039 447.494 256.655 446.275 262.754Z" fill="#898989"/>
<path d="M425.627 232.107C425.627 232.107 426.429 236.28 431.142 242.198C432.777 244.253 432.617 250.935 430.434 253.197L431.142 253.572C431.142 253.572 436.749 249.235 439.182 249.776C441.615 250.318 443.249 257.456 440.629 259.354C438.009 261.252 437.351 259.945 437.351 259.945C437.351 259.945 432.227 264.323 431.504 269.023C430.782 273.722 432.347 277.05 432.347 277.05L432.723 273.586C432.723 273.586 450.711 268.298 447.25 253.932C443.788 239.567 445.598 238.575 439.635 235.051C433.672 231.527 425.627 232.107 425.627 232.107Z" fill="black"/>
<path d="M435.175 290.63C435.007 291.065 434.727 291.448 434.364 291.741C432.542 293.117 425.151 294.743 419.559 294.775C416.841 294.793 414.549 294.432 413.52 293.481C412.215 292.278 410.171 290.949 408.609 289.692C408.228 289.384 407.876 289.08 407.57 288.784C410.339 287.544 412.683 286.8 413.971 285.834C414.402 285.517 414.833 284.898 415.252 284.098C415.252 284.098 432.24 292.373 433.456 286.47C433.555 286.804 433.672 287.143 433.784 287.479C434.167 288.564 434.632 289.617 435.175 290.63Z" fill="black"/>
<path d="M401.507 292.253C401.507 292.253 393.096 300.114 385.425 306.89C385.425 306.89 382.58 288.233 384.207 280.507C385.833 272.782 384.737 256.959 383.516 255.333C383.516 255.333 383.197 256.053 381.91 257.755C380.344 259.821 376.645 261.587 373.74 257.539C371.694 254.679 374.057 252.555 374.057 252.555C374.057 252.555 371.422 250.914 369.856 252.124C368.29 253.333 365.202 259.819 363.878 262.588C362.554 265.357 365.644 268.924 367.544 269.996C370.975 271.937 372.576 276.035 372.394 277.781C372.213 279.528 366.597 324.568 370.119 331.209C373.641 337.849 382.589 332.287 382.589 332.287L414.292 328.621C414.292 328.621 425.269 313.034 426.354 304.897C427.439 296.76 416.731 287.551 416.731 287.551C416.731 287.551 406.446 289.061 401.507 292.253Z" fill="#898989"/>
<path d="M398.572 323.332C398.572 323.332 409.61 315.652 410.753 314.869C411.896 314.086 413.751 318.182 416.36 314.207C418.97 310.232 423.091 303.148 416.36 291.014C416.36 291.014 427.159 291.499 427.428 299.826C427.698 308.153 422.278 325.23 419.388 327.488C416.498 329.746 398.706 330.552 398.572 323.332Z" fill="black"/>
<path d="M385.425 306.89C385.425 306.89 378.649 311.98 377.083 316.918C377.083 316.918 375.819 320.05 376.723 314.568C377.627 309.085 385.179 305.117 385.179 305.117L385.425 306.89Z" fill="black"/>
<path d="M388.544 355.316C388.083 363.109 388.083 370.923 388.544 378.716C389.311 391.365 386.961 426.782 386.961 426.782H442.074C442.074 426.782 447.697 399.316 443.258 385.402C438.82 371.487 428.522 362.996 426.896 355.316C425.27 347.636 388.544 355.316 388.544 355.316Z" fill="#5A5A5A"/>
<path d="M438.822 324.823C435.028 333.361 426.896 355.316 426.896 355.316C413.207 363.988 388.544 355.316 388.544 355.316C388.544 355.316 387.754 343.493 387.433 339.18C387.379 338.429 387.336 337.905 387.316 337.705C387.181 336.348 382.572 332.285 382.572 332.285C387.448 330.521 398.561 323.339 398.561 323.339C413.065 327.268 424.808 309.877 420.38 296.777C419.953 295.45 419.316 294.199 418.493 293.072C412.933 285.694 401.954 291.994 401.518 292.257C406.662 288.468 411.805 287.474 413.971 285.85C413.971 285.85 432.818 294.586 433.784 287.484C434.492 289.527 435.504 291.451 436.784 293.193C443.159 301.787 442.616 316.285 438.822 324.823Z" fill="black"/>
<path d="M399.51 323.559C399.51 323.559 387.286 332.268 383.212 332.859L382.565 332.278C382.565 332.278 389.719 329.475 398.555 323.333L399.51 323.559Z" fill="#2D2D2D"/>
<path d="M418.273 274.872C418.4 274.319 418.472 273.755 418.489 273.188C418.45 272.541 416.625 271.221 414.428 269.521C414.428 269.521 421.29 273.188 423.548 273.369C425.806 273.55 418.431 274.844 418.273 274.872Z" fill="black"/>
<path d="M474.303 255.807C473.837 256.874 473.254 257.887 472.565 258.826C465.664 268.449 457.253 260.983 457.253 260.983C453.457 283.21 434.938 275.433 432.723 273.589C430.508 271.745 436.111 260.081 438.19 259.266C440.269 258.451 441.803 256.105 440.994 253.53C440.185 250.954 435.302 250.683 432.999 253.122C430.696 255.561 426.087 254.75 429.205 253.799C432.324 252.848 438.285 245.804 432.322 241.006C428.871 238.228 426.827 234.751 425.722 232.304C425.274 231.338 424.902 230.339 424.612 229.314C424.612 229.314 418.907 222.09 440.185 222.376C461.463 222.663 459.558 247.305 459.558 247.305C469.818 243.924 477.597 248.067 474.303 255.807Z" fill="#414040"/>
<path d="M474.303 255.807C473.837 256.875 473.254 257.887 472.565 258.826C465.664 268.449 457.253 260.983 457.253 260.983C453.457 283.21 434.938 275.433 432.723 273.589C430.508 271.745 436.111 260.082 438.19 259.266C440.269 258.451 441.803 256.105 440.994 253.53C440.185 250.955 435.302 250.683 432.999 253.122C430.696 255.561 426.087 254.75 429.205 253.799C432.324 252.848 438.285 245.804 432.322 241.006C428.871 238.228 426.827 234.752 425.722 232.304C425.897 232.563 430.946 239.943 437.472 243.922C444.112 247.972 444.869 255.691 447.861 259.327C449.31 261.089 454.546 263.966 457.393 258.272C457.389 258.281 470.081 263.224 474.303 255.807Z" fill="#3B3030"/>
<path d="M153.154 191.271C151.453 190.48 65.4187 165.087 65.7573 162.588C65.8803 161.693 66.6481 158.464 67.6595 154.496C69.4625 147.435 72.0376 138.03 73.1245 135.271C73.5666 134.154 75.0893 133.063 77.2093 132.036C79.8663 130.742 83.4636 129.509 87.0588 128.407H87.0803C91.633 127.009 96.1664 125.799 98.7436 124.861C99.1868 124.698 99.5951 124.453 99.947 124.139C104.629 120.004 102.5 103.435 104.183 94.5922C105.999 85.0684 112.684 91.1912 121.074 84.5033C129.463 77.8155 138.644 81.8895 138.644 81.8895C146.958 86.7635 141.232 101.422 140.382 105.149C139.533 108.876 139.373 114.371 132.474 118.501C125.575 122.631 121.527 119.864 121.527 119.864C121.527 119.864 120.931 124.128 121.878 126.256C121.939 126.398 122.011 126.534 122.094 126.664C122.784 127.732 128.6 129.181 134.406 130.518L134.652 130.574C137.671 131.269 140.68 131.933 142.932 132.496C144.088 132.782 145.045 133.048 145.705 133.274C150.327 134.857 159.031 162.855 161.88 176.306C162.284 178.084 162.584 179.885 162.779 181.698C163.127 185.916 154.851 192.065 153.154 191.271Z" fill="#898989"/>
<path d="M153.154 191.271C151.453 190.479 65.4187 165.087 65.7573 162.587C65.8803 161.692 66.6481 158.464 67.6595 154.495C69.4625 147.435 72.0376 138.029 73.1245 135.271C73.5666 134.154 75.0893 133.062 77.2093 132.036C79.8663 130.742 83.4636 129.508 87.0588 128.406H87.0803C91.633 127.009 96.1664 125.799 98.7436 124.861C99.1868 124.698 99.5951 124.453 99.947 124.138C99.947 124.138 108.955 129.782 121.878 126.269C121.939 126.41 122.011 126.547 122.094 126.677C122.784 127.744 128.6 129.193 134.406 130.531L134.652 130.587C137.671 131.281 140.68 131.945 142.932 132.508C144.088 132.795 145.045 133.06 145.705 133.287C150.327 134.87 159.031 162.868 161.88 176.319C162.284 178.097 162.584 179.897 162.779 181.71C163.127 185.916 154.851 192.065 153.154 191.271Z" fill="#818181"/>
<path d="M111.834 93.4684C111.834 93.4684 106.527 93.5115 105.973 96.2311C105.418 98.9507 107.586 102.529 106.275 104.696C104.963 106.863 103.227 110.191 103.227 110.191V103.29C103.227 103.29 103.503 93.6172 105.116 92.155C106.73 90.6928 111.834 93.4684 111.834 93.4684Z" fill="black"/>
<path d="M143.082 92.0496C143.082 92.0496 138.918 83.1253 129.28 86.7615C126.058 87.9904 123.31 90.2116 121.434 93.1042C119.206 96.5053 115.436 101.504 114.399 98.1788C114.399 98.1788 125.613 78.8616 131.275 80.6602C136.936 82.4589 143.917 85.9462 143.082 92.0496Z" fill="black"/>
<path d="M146.276 205.404C146.276 205.404 153.076 206.763 147.635 216.586C142.194 226.41 114.334 236.538 103.553 233.665C92.7717 230.792 75.3933 214.169 82.2019 208.878C89.0105 203.588 146.276 205.404 146.276 205.404Z" fill="#505050"/>
<path d="M110.142 74.3672C108.952 74.8434 107.827 75.465 106.79 76.2176C106.79 76.2176 95.375 66.2323 83.4982 77.2075C71.6214 88.1828 94.1068 120.557 94.1068 120.557C94.1068 120.557 85.7886 85.2325 102.572 80.9558C100.879 83.8911 100.033 87.4258 99.9665 91.1935C99.9335 94.7313 100.482 98.2504 101.59 101.61C102.848 105.492 102.007 107.617 102.007 107.617C104.349 107.468 105.71 103.385 105.71 103.385C104.953 102.706 102.158 94.3272 108.513 93.2596C114.869 92.1921 114.399 98.1725 114.399 98.1725C118.115 100.892 118.693 87.6048 130.028 84.7214C141.364 81.8379 143.083 92.054 143.083 92.054C143.364 91.3223 143.568 90.5634 143.693 89.7895C145.671 77.3111 123.929 68.8116 110.142 74.3672Z" fill="#C5C5C5"/>
<path d="M65.7573 162.592C65.4187 165.087 151.452 190.48 153.152 191.275C154.851 192.071 163.127 185.92 162.788 181.691C162.593 179.882 162.292 178.086 161.889 176.312C156.682 174.496 145.785 156.255 142.938 152.509C140.091 148.763 142.938 132.5 142.938 132.5L134.659 130.578L134.413 130.522C134.413 130.522 134.913 140.227 129.806 148.545C124.699 156.864 115.072 154.552 102.261 153.984C89.4505 153.417 87.0825 128.4 87.0825 128.4H87.0631L77.2136 132.03C77.2136 132.03 78.6456 146.158 78.8742 150.691C79.1028 155.225 75.9627 154.433 75.9627 154.433C73.338 154.099 70.3748 153.92 67.6639 154.5C66.6481 158.468 65.8738 161.697 65.7573 162.592Z" fill="#CBD8EA"/>
<path d="M121.527 119.86C121.527 119.86 112.755 115.891 109.615 112.046C109.615 112.046 108.125 110.789 109.145 113.851C110.165 116.914 121.527 125.066 121.527 125.066C121.527 125.066 121.27 122.101 121.527 119.86Z" fill="black"/>
<path d="M135.965 130.529C136.034 130.544 135.855 148.291 127.863 153.92C119.87 159.549 98.2561 160.787 93.1923 151.332C88.1284 141.877 86.168 128.019 86.168 128.019L78.0568 130.975C78.0568 130.975 82.0466 149.643 78.8936 160.112C75.7405 170.58 139.453 166.647 139.453 166.647C139.453 166.647 138.59 140.268 142.233 131.791L135.965 130.529Z" fill="black"/>
<path d="M152.811 155.511H67.241C66.4215 155.511 65.7572 156.176 65.7572 156.995V211.565C65.7572 212.385 66.4215 213.049 67.241 213.049H152.811C153.631 213.049 154.295 212.385 154.295 211.565V156.995C154.295 156.176 153.631 155.511 152.811 155.511Z" fill="#5A5A5A"/>
<path d="M110.398 189.019C114.179 189.019 117.243 187.281 117.243 185.137C117.243 182.993 114.179 181.255 110.398 181.255C106.618 181.255 103.553 182.993 103.553 185.137C103.553 187.281 106.618 189.019 110.398 189.019Z" fill="black"/>
<g opacity="0.28">
<path d="M65.7574 171.322V211.565C65.7591 211.958 65.916 212.335 66.1939 212.612C66.4718 212.89 66.8482 213.047 67.2412 213.049H152.811C153.204 213.047 153.581 212.89 153.859 212.612C154.137 212.335 154.293 211.958 154.295 211.565V197.618L65.7574 171.322Z" fill="#8C939E"/>
</g>
<path d="M76.7369 227.423C79.1265 231.549 81.4471 237.049 82.8338 240.54L83.442 240.465L83.6879 240.435L84.4449 240.35L85.5016 240.245L85.6375 240.232C93.5956 239.494 105.662 239.317 113.571 239.292C118.289 239.274 121.529 239.309 121.529 239.309C122.391 239.369 123.254 239.421 124.097 239.471C172.775 242.257 192.248 228.234 188.782 216.923C188.567 216.234 188.278 215.57 187.92 214.943C185.25 210.198 179.276 208.145 173.09 207.366C163.95 206.254 154.688 207.947 146.533 212.221C139.66 215.808 132.541 218.901 125.23 221.477C124.738 221.648 124.242 221.818 123.744 221.984C123.245 222.15 122.745 222.319 122.234 222.48C119.949 223.199 117.627 223.791 115.277 224.253C105.63 226.205 93.6581 226.979 84.3284 227.272H84.1818L83.5542 227.29H83.5585L83.0323 227.305L82.286 227.324L81.7965 227.335L80.6103 227.363H80.289L79.2106 227.38L78.348 227.393H77.8886C77.6923 227.393 77.4982 227.393 77.3063 227.393H77.054L76.7369 227.423Z" fill="black"/>
<path d="M78.003 229.744C78.0117 229.755 78.0211 229.765 78.031 229.774C79.1503 231.086 80.9231 235.22 82.9029 240.534C84.4126 244.608 86.0581 249.376 87.6217 254.093C87.8891 254.895 88.1523 255.7 88.4154 256.498L88.6052 257.088L88.7453 257.52L88.9179 258.052C88.9977 258.3 89.0775 258.546 89.1551 258.79C89.2133 258.973 89.2737 259.155 89.332 259.336C89.4419 259.674 89.5476 260.009 89.6555 260.341C89.7115 260.515 89.7654 260.69 89.8194 260.863C89.9078 261.137 89.9962 261.408 90.0825 261.678C90.1687 261.947 90.2464 262.195 90.3262 262.45C90.5009 262.996 90.6691 263.528 90.8351 264.059C90.9581 264.447 91.0789 264.827 91.1953 265.206C91.2341 265.329 91.2729 265.456 91.3139 265.581C91.3549 265.706 91.3916 265.832 91.4325 265.955C91.5123 266.22 91.5943 266.481 91.6741 266.742C91.7086 266.85 91.7453 266.957 91.7776 267.07C91.8251 267.218 91.8703 267.369 91.9156 267.52C92.1701 268.331 92.4095 269.11 92.6338 269.843C92.6899 270.026 92.7438 270.205 92.7999 270.384L93.0738 271.284C93.1234 271.445 93.1687 271.603 93.2161 271.76C93.6474 273.199 94.0076 274.398 94.2643 275.282C94.2772 275.319 94.288 275.358 94.2966 275.392C94.3182 275.468 94.3419 275.543 94.3613 275.608C94.899 277.503 95.638 279.335 96.5654 281.073C96.6301 281.198 96.6991 281.321 96.766 281.442C96.8328 281.562 96.8997 281.683 96.9687 281.8C97.0377 281.916 97.1046 282.035 97.1844 282.149C97.2642 282.263 97.3203 282.378 97.4001 282.49C97.4799 282.602 97.5381 282.705 97.6157 282.822C97.6934 282.938 97.7451 283.025 97.812 283.124L98.0039 283.411L98.2196 283.713C98.4281 284.01 98.638 284.298 98.8493 284.575C98.9183 284.668 98.9874 284.759 99.065 284.845C99.1426 284.931 99.2009 285.024 99.2807 285.108C99.3605 285.192 99.4187 285.28 99.4963 285.365C99.574 285.449 99.6344 285.531 99.712 285.61C99.7896 285.69 99.85 285.772 99.9277 285.85C100.005 285.927 100.072 286.014 100.143 286.093C100.284 286.253 100.428 286.406 100.575 286.557C101.347 287.373 102.174 288.136 103.051 288.839C105.395 290.73 105.317 298.589 105.317 298.589C105.408 299.31 105.49 300.008 105.559 300.688C105.593 301.013 105.626 301.335 105.654 301.647C105.697 302.122 105.738 302.583 105.77 303.034C105.789 303.286 105.807 303.532 105.82 303.778C105.82 303.828 105.82 303.877 105.83 303.927C105.83 304.052 105.846 304.175 105.852 304.298C105.862 304.463 105.871 304.627 105.878 304.79C105.878 304.932 105.893 305.072 105.899 305.221C105.899 305.277 105.899 305.331 105.899 305.385L105.919 305.881C105.919 305.937 105.919 305.991 105.919 306.047C105.919 306.183 105.919 306.317 105.93 306.45C105.93 306.623 105.93 306.793 105.93 306.961C105.93 307.054 105.93 307.145 105.93 307.235C105.994 315.989 103.827 319.96 101.28 322.315C101.172 322.414 101.064 322.511 100.956 322.604C100.184 323.255 99.3608 323.845 98.4956 324.368C98.2877 324.498 98.0716 324.615 97.8486 324.717C93.352 326.822 84.5291 324.933 83.2351 322.479C81.8742 319.908 84.2163 317.413 84.2163 317.413C84.7931 316.462 85.2908 315.466 85.7044 314.434C87.8611 309.043 88.1264 301.869 86.483 290.362C86.4183 289.937 86.3246 289.518 86.2026 289.106C85.5556 286.85 83.9683 283.788 81.7793 280.145C80.7355 278.42 79.5493 276.542 78.2618 274.568C77.4983 273.397 76.696 272.196 75.8679 270.952L75.2209 270.005L74.6343 269.142L73.6832 267.738C73.2799 267.145 72.8701 266.543 72.456 265.939C72.2404 265.616 72.0247 265.292 71.7896 264.967C71.5351 264.589 71.2763 264.214 71.0175 263.837C68.5589 260.244 65.9817 256.504 63.4153 252.685L62.6475 251.539C62.1364 250.778 61.6274 250.01 61.1163 249.245C60.6051 248.479 60.1177 247.735 59.6217 246.974C59.3651 246.579 59.1041 246.184 58.8496 245.788C47.4797 228.273 38.1456 210.85 43.8565 203.167C47.4064 198.388 55.8044 198.516 65.8092 201.026C71.891 202.553 78.568 204.96 85.1092 207.681C89.2478 209.407 93.3304 211.248 97.1865 213.073C99.8263 214.33 102.363 215.579 104.711 216.772C110.318 219.608 114.938 222.14 117.802 223.74C119.806 224.861 120.944 225.53 120.944 225.53C119.65 226.3 116.963 226.936 113.534 227.458C108.173 228.275 100.995 228.815 94.4993 229.162C90.2917 229.39 86.3687 229.537 83.4098 229.63C80.22 229.703 78.1669 229.74 78.003 229.744Z" fill="black"/>
<path d="M58.9575 209.295C69.4993 214.057 77.9944 229.742 77.9944 229.742C77.9944 229.742 114.802 229.132 120.886 225.504C120.886 225.504 123.658 226.552 114.142 221.732C91.2277 227.986 80.714 217.57 68.9321 211.221C57.1502 204.871 58.9575 209.295 58.9575 209.295Z" fill="#505050"/>
<path d="M124.104 239.47C123.256 239.423 122.399 239.369 121.533 239.309C121.533 239.309 118.798 239.278 114.69 239.289C113.586 239.289 112.38 239.289 111.106 239.302H110.407C102.966 239.363 93.3088 239.565 86.3945 240.165C85.1005 240.277 83.9079 240.4 82.8403 240.542C81.4536 237.051 79.133 231.547 76.7434 227.421C78.9454 227.402 81.5269 227.361 84.3435 227.27C92.5065 227.016 102.675 226.39 111.558 224.932C112.805 224.717 114.026 224.501 115.21 224.268C117.589 223.804 119.939 223.208 122.251 222.48C122.454 222.416 122.657 222.351 122.857 222.282C123.159 222.185 123.459 222.086 123.754 221.986C123.11 226.034 122.417 233.218 124.104 239.47Z" fill="#898989"/>
<path d="M76.737 227.423C79.1266 231.548 81.4471 237.048 82.8339 240.54L83.4421 240.464L83.6879 240.434L84.4449 240.35L85.5017 240.244L85.6376 240.231L86.3859 240.164C80.7074 231.402 84.3392 227.27 84.3392 227.27H84.1926L83.565 227.287H83.5585L83.0323 227.302L82.2861 227.321L81.7965 227.332L80.6103 227.36C80.5025 227.36 80.3947 227.36 80.289 227.36L79.2107 227.377L78.348 227.39H77.8886H77.3063H76.7327L76.737 227.423Z" fill="black"/>
<path d="M105.876 307.215C105.94 315.969 103.773 319.94 101.226 322.295C101.118 322.394 101.01 322.491 100.902 322.584C100.13 323.235 99.3068 323.825 98.4416 324.348C98.2337 324.478 98.0176 324.595 97.7946 324.697C93.2979 326.802 84.475 324.913 83.181 322.459C81.8202 319.888 84.1623 317.393 84.1623 317.393C84.7391 316.442 85.2367 315.446 85.6504 314.414C87.8071 309.023 88.0724 301.85 86.429 290.342C86.3643 289.917 86.2706 289.498 86.1486 289.086C85.5016 286.831 83.9143 283.768 81.7253 280.125C80.6814 278.4 79.4953 276.522 78.2077 274.548C77.4443 273.377 76.642 272.176 75.8138 270.932L75.1668 269.985L74.5802 269.122L73.6291 267.718C73.2258 267.125 72.8161 266.523 72.402 265.92C72.1863 265.596 71.9707 265.273 71.7356 264.947C71.6731 264.852 71.6084 264.759 71.5437 264.666L70.9635 263.817C78.8181 264.248 88.2168 256.65 88.4001 256.508L88.5899 257.099L88.7301 257.53L88.9027 258.063C88.9825 258.311 89.0623 258.557 89.1399 258.8C89.1981 258.984 89.2585 259.165 89.3167 259.346C89.375 259.527 89.4246 259.682 89.4785 259.851L89.6402 260.351C89.6963 260.526 89.7502 260.7 89.8041 260.873C89.8926 261.147 89.981 261.419 90.0673 261.688C90.1535 261.958 90.2312 262.206 90.311 262.46C90.4857 263.006 90.6539 263.539 90.8199 264.069C90.9429 264.457 91.0636 264.837 91.1801 265.216C91.2189 265.339 91.2577 265.467 91.2987 265.592C91.3397 265.717 91.3763 265.842 91.4173 265.965C91.4971 266.23 91.5791 266.491 91.6589 266.752C91.6934 266.86 91.7301 266.968 91.7624 267.08C91.8099 267.229 91.8551 267.38 91.9004 267.531C92.1549 268.341 92.3943 269.12 92.6186 269.853C92.6747 270.037 92.7286 270.216 92.7847 270.395L93.0586 271.294C93.1082 271.456 93.1534 271.613 93.2009 271.771C93.6322 273.209 93.9924 274.408 94.249 275.292C94.262 275.329 94.2728 275.368 94.2814 275.402C94.3029 275.478 94.3267 275.553 94.3461 275.618C94.8838 277.513 95.6227 279.345 96.5502 281.083C96.6149 281.208 96.6839 281.329 96.7508 281.452C96.8176 281.575 96.8845 281.693 96.9535 281.81C97.0225 281.926 97.0894 282.045 97.1692 282.159C97.249 282.273 97.305 282.388 97.3848 282.5C97.4646 282.612 97.5229 282.716 97.6005 282.832C97.6781 282.949 97.7299 283.035 97.7968 283.134L97.9887 283.421L98.2044 283.723C98.4128 284.02 98.6227 284.308 98.8341 284.585C98.9031 284.678 98.9743 284.769 99.0498 284.855C99.1253 284.941 99.1878 285.034 99.2654 285.118C99.3431 285.202 99.4035 285.291 99.4811 285.375C99.5587 285.459 99.6191 285.539 99.6968 285.621L99.9124 285.86C99.9836 285.942 100.059 286.024 100.128 286.104C100.268 286.263 100.413 286.416 100.559 286.567C101.332 287.384 102.159 288.146 103.035 288.849C105.38 290.741 105.302 298.599 105.302 298.599C105.393 299.32 105.474 300.019 105.543 300.698C105.578 301.024 105.61 301.345 105.638 301.658C105.682 302.132 105.723 302.594 105.755 303.044C105.774 303.297 105.792 303.543 105.804 303.788C105.804 303.838 105.804 303.888 105.815 303.937C105.815 304.062 105.83 304.185 105.837 304.308C105.847 304.474 105.856 304.637 105.863 304.8C105.863 304.942 105.878 305.082 105.884 305.231C105.884 305.287 105.884 305.341 105.884 305.395L105.904 305.891C105.904 305.947 105.904 306.001 105.904 306.057C105.904 306.193 105.904 306.327 105.914 306.461C105.914 306.633 105.914 306.803 105.914 306.972C105.873 307.045 105.876 307.125 105.876 307.215Z" fill="#898989"/>
<path d="M101.577 101.61C102.835 105.492 101.994 107.616 101.994 107.616C104.336 107.467 105.697 103.384 105.697 103.384C104.94 102.705 102.145 94.3265 108.5 93.2589C114.856 92.1914 114.399 98.1718 114.399 98.1718C118.115 100.891 118.693 87.6041 130.028 84.7207C141.364 81.8372 143.082 92.0533 143.082 92.0533C143.364 91.3216 143.568 90.5627 143.693 89.7888C142.975 87.9751 139.065 79.6848 128.775 83.6661C118.589 87.6106 108.606 93.3905 99.9534 91.1971C99.9208 94.7334 100.469 98.2511 101.577 101.61Z" fill="black"/>
<path d="M89.6469 260.332C89.6469 260.332 87.5549 259.2 81.9735 261.988C76.392 264.777 71.5482 264.658 71.5482 264.658L70.968 263.808C78.8226 264.24 88.2213 256.642 88.4047 256.5L89.483 259.832L89.6469 260.332Z" fill="black"/>
<path d="M124.104 239.471C123.256 239.423 122.399 239.369 121.533 239.309C121.533 239.309 118.798 239.279 114.69 239.289C113.586 239.289 112.38 239.289 111.106 239.302H110.407C110.407 239.302 117.328 236.328 118.883 232.673C120.438 229.017 122.857 222.275 122.857 222.275C123.159 222.178 123.459 222.079 123.754 221.98C123.11 226.035 122.417 233.218 124.104 239.471Z" fill="black"/>
<path d="M105.876 307.216C105.94 315.97 103.773 319.94 101.226 322.295C101.118 322.394 101.01 322.492 100.902 322.584C100.13 323.236 99.3069 323.826 98.4417 324.348C98.2338 324.479 98.0177 324.595 97.7947 324.698C93.2981 326.803 84.4751 324.913 83.1811 322.459C81.8203 319.888 84.1624 317.393 84.1624 317.393C84.7392 316.443 85.2369 315.447 85.6505 314.415C87.8072 309.023 88.0725 301.85 86.4291 290.342C86.3644 289.918 86.2707 289.498 86.1487 289.087C91.3247 292.406 97.7947 283.122 97.7947 283.122L97.9867 283.408L98.2023 283.71C98.4108 284.008 98.6207 284.296 98.8321 284.573C98.9011 284.666 98.9723 284.756 99.0477 284.843C99.1232 284.929 99.1858 285.022 99.2634 285.106C99.341 285.19 99.4014 285.278 99.4791 285.362C99.5567 285.446 99.6171 285.526 99.6947 285.608L99.9104 285.848C99.9816 285.93 100.057 286.012 100.126 286.091C100.266 286.251 100.411 286.404 100.557 286.555C101.33 287.371 102.157 288.134 103.033 288.837C105.378 290.728 105.3 298.587 105.3 298.587C105.391 299.307 105.472 300.006 105.541 300.685C105.576 301.011 105.608 301.332 105.636 301.645C105.679 302.12 105.72 302.581 105.753 303.032C105.772 303.284 105.789 303.53 105.802 303.776C105.802 303.826 105.802 303.875 105.813 303.925C105.813 304.05 105.828 304.173 105.835 304.296C105.845 304.461 105.853 304.625 105.861 304.787C105.861 304.93 105.876 305.07 105.882 305.219C105.882 305.275 105.882 305.329 105.882 305.383L105.902 305.879C105.902 305.935 105.902 305.989 105.902 306.045C105.902 306.181 105.902 306.314 105.912 306.448C105.912 306.621 105.912 306.791 105.912 306.959C105.874 307.045 105.876 307.125 105.876 307.216Z" fill="#C5C5C5"/>
<path d="M208.395 227.162V165.691H273.35V180.386" stroke="#B9B9B9" stroke-width="0.712308" stroke-linejoin="round"/>
<path d="M240.872 376.803H161.699V355.271" stroke="#B9B9B9" stroke-width="0.712308" stroke-linejoin="round"/>
<path d="M248.093 120.244H221.932C215.627 120.244 210.515 125.355 210.515 131.661V133.736C210.515 140.041 215.627 145.153 221.932 145.153H248.093C254.398 145.153 259.51 140.041 259.51 133.736V131.661C259.51 125.355 254.398 120.244 248.093 120.244Z" fill="black"/>
<path d="M248.093 120.244H221.932C215.627 120.244 210.515 125.355 210.515 131.661V133.736C210.515 140.041 215.627 145.153 221.932 145.153H248.093C254.398 145.153 259.51 140.041 259.51 133.736V131.661C259.51 125.355 254.398 120.244 248.093 120.244Z" stroke="#A9A9A9" stroke-width="0.569847" stroke-miterlimit="10"/>
<path d="M222.97 145.153C229.848 145.153 235.425 139.577 235.425 132.698C235.425 125.82 229.848 120.244 222.97 120.244C216.091 120.244 210.515 125.82 210.515 132.698C210.515 139.577 216.091 145.153 222.97 145.153Z" fill="#A9A9A9"/>
<path d="M75.1001 364.667H12.1298C8.55171 364.667 5.65112 367.568 5.65112 371.146V375.134C5.65112 378.712 8.55171 381.612 12.1298 381.612H75.1001C78.6782 381.612 81.5787 378.712 81.5787 375.134V371.146C81.5787 367.568 78.6782 364.667 75.1001 364.667Z" fill="#A9A9A9"/>
<path d="M14.4459 368.417V377.862L22.2078 372.588L14.4459 368.417Z" fill="black"/>
<path d="M26.9933 367.771H25.9581V379.154H26.9933V367.771Z" fill="black"/>
<path d="M72.0483 368.312H35.4432V369.277H72.0483V368.312Z" fill="black"/>
<path d="M72.0483 371.174H35.4432V372.138H72.0483V371.174Z" fill="black"/>
<path d="M72.0483 374.036H35.4432V375H72.0483V374.036Z" fill="black"/>
<path d="M58.6296 376.897H35.4432V377.862H58.6296V376.897Z" fill="black"/>
</g>
<defs>
<clipPath id="clip0_169_603">
<rect width="494" height="494" fill="white"/>
</clipPath>
</defs>
</svg>
